<?xml version="1.0" standalone="no"?>
<!DOCTYPE svg PUBLIC "-//W3C//DTD SVG 20010904//EN"
 "http://www.w3.org/TR/2001/REC-SVG-20010904/DTD/svg10.dtd">
<svg version="1.0" xmlns="http://www.w3.org/2000/svg"
 width="718.000000pt" height="718.000000pt" viewBox="0 0 718.000000 718.000000"
 preserveAspectRatio="xMidYMid meet">

<g transform="translate(0.000000,718.000000) scale(0.100000,-0.100000)"
fill="#000000" stroke="none">
<path d="M1 5893 c0 -1264 0 -1287 19 -1242 10 25 21 79 25 120 4 40 10 79 15
84 4 6 16 35 25 65 24 79 57 150 69 150 16 1 59 40 82 74 60 90 130 232 138
278 3 18 10 58 17 88 6 31 12 181 14 345 2 160 8 353 14 430 6 77 13 223 16
325 3 102 10 226 15 275 8 80 14 229 11 278 -1 16 -19 17 -231 17 l-230 0 1
-1287z"/>
<path d="M835 7158 c-2 -13 -6 -138 -9 -278 -2 -140 -10 -435 -16 -655 -7
-220 -13 -643 -15 -940 -1 -297 -7 -643 -13 -770 -12 -250 -17 -798 -13 -1300
2 -148 -5 -311 -25 -565 -25 -330 -31 -545 -39 -1250 -3 -245 -7 -458 -10
-475 -3 -16 -18 -60 -32 -98 l-26 -67 23 -53 c13 -28 32 -61 42 -73 10 -11 18
-26 18 -32 0 -7 11 -30 25 -52 30 -47 31 -76 5 -110 -18 -23 -26 -50 -16 -50
3 0 33 16 68 36 35 19 95 49 133 67 114 51 417 206 452 230 17 12 57 37 87 55
44 26 56 39 56 58 0 14 -6 32 -12 39 -7 7 -29 36 -48 64 -22 31 -45 51 -60 54
-14 3 -36 15 -49 26 -22 19 -53 26 -88 22 -7 -1 -33 7 -57 19 -25 11 -49 20
-53 20 -12 0 -81 58 -139 116 -64 64 -83 125 -64 204 6 27 18 54 26 61 8 6 14
17 14 23 1 6 21 29 46 51 25 22 67 59 92 83 25 24 78 67 118 97 78 59 92 83
100 170 9 95 24 156 43 184 14 19 20 47 22 94 1 37 -1 70 -4 74 -14 13 -7 160
9 198 10 25 12 41 5 48 -5 5 -7 22 -5 37 3 15 -1 78 -10 141 -8 63 -21 161
-27 219 -13 118 -13 386 1 440 10 42 19 162 36 490 2 52 7 109 9 125 35 226
37 252 36 607 -1 99 3 187 9 200 11 26 30 161 31 223 0 46 16 103 34 125 7 8
15 44 18 80 3 36 10 97 16 135 6 39 13 95 16 125 7 79 33 306 41 363 4 26 11
50 15 53 5 3 9 15 9 27 0 12 14 42 30 67 16 25 30 50 30 56 0 14 83 72 115 80
13 3 35 17 47 30 38 40 55 56 74 74 40 36 91 97 114 135 21 35 24 51 23 130 0
64 -6 102 -19 130 -15 33 -18 73 -21 230 -2 105 -6 232 -9 283 l-6 92 -599 0
-599 0 -5 -22z"/>
<path d="M2602 6989 l3 -190 -53 -46 c-49 -43 -52 -47 -46 -81 5 -25 4 -33 -5
-28 -7 5 -11 -2 -11 -18 0 -22 -3 -24 -22 -17 -18 7 -32 1 -69 -31 -25 -21
-55 -56 -65 -78 -12 -24 -28 -41 -43 -45 -17 -4 -21 -9 -13 -17 8 -8 15 -6 26
5 9 9 26 19 39 23 12 4 31 17 42 29 l21 22 15 -21 c9 -12 16 -39 17 -61 1 -32
-1 -36 -9 -22 -13 23 -29 12 -29 -20 0 -20 4 -24 18 -18 9 4 25 9 34 12 10 3
20 14 23 24 7 22 35 26 35 5 0 -8 -4 -17 -9 -20 -8 -5 -19 -76 -24 -148 -2
-29 -17 -40 -17 -12 0 9 -6 14 -12 11 -7 -2 -13 -16 -13 -30 -1 -14 -4 -29 -8
-33 -4 -4 -7 0 -7 10 0 9 -4 15 -8 12 -11 -6 -14 -66 -4 -66 18 0 81 63 84 83
2 13 11 23 23 25 11 2 25 10 30 17 13 16 142 55 161 48 10 -4 14 3 14 22 0 15
4 24 10 20 13 -8 13 -62 0 -70 -7 -4 0 -17 15 -31 20 -18 30 -22 39 -15 7 6
16 8 19 4 4 -3 7 -2 7 4 0 6 -6 13 -14 16 -18 7 -31 110 -16 134 8 14 9 10 4
-18 -4 -25 -1 -44 10 -60 8 -13 15 -27 16 -31 0 -11 3 -12 28 -4 13 5 20 12
15 19 -4 7 1 6 11 -2 26 -22 43 1 18 25 -10 11 -22 31 -26 47 -3 15 -11 27
-16 27 -6 0 -10 5 -10 11 0 5 6 7 13 3 9 -6 9 -4 1 7 -13 17 -15 81 -1 72 5
-3 6 -14 4 -25 -4 -12 1 -21 11 -25 9 -4 34 -18 54 -31 31 -20 37 -29 32 -48
-3 -12 -1 -31 4 -41 10 -17 11 -17 17 0 4 9 13 17 21 17 17 0 18 17 2 23 -7 2
-10 8 -6 12 5 5 17 -2 28 -15 13 -15 26 -21 40 -17 14 4 24 -1 31 -16 11 -19
13 -19 24 -4 15 21 25 22 25 2 0 -8 8 -15 18 -15 14 0 14 -3 -5 -18 -14 -11
-25 -33 -29 -61 -7 -41 -6 -44 13 -39 34 9 44 -4 33 -41 -8 -28 -7 -31 5 -21
13 10 15 8 13 -16 -2 -16 -11 -36 -22 -45 -24 -20 -13 -39 21 -39 34 0 24 -10
-22 -20 -32 -7 -35 -6 -30 11 4 13 2 19 -9 19 -10 0 -16 9 -16 23 l-1 22 -18
-22 c-19 -23 -68 -48 -85 -44 -5 1 -16 -4 -25 -12 -13 -12 -21 -12 -44 -3 -15
7 -24 15 -21 19 4 4 3 7 -3 7 -6 0 -13 -7 -17 -15 -6 -16 -36 -21 -36 -6 0 5
14 20 31 32 28 20 30 24 16 34 -9 7 -14 15 -10 18 3 4 1 13 -6 20 -9 11 -8 17
3 27 9 6 20 9 26 5 15 -9 12 14 -4 30 -10 10 -16 11 -24 3 -16 -16 -27 -1 -13
16 7 8 10 20 6 26 -3 5 1 13 9 16 16 6 22 34 8 34 -9 0 -13 -8 -52 -93 -15
-32 -30 -49 -46 -53 -13 -3 -24 -10 -24 -15 0 -6 -6 -4 -14 3 -11 11 -11 14 2
24 10 7 11 13 4 18 -6 3 -13 2 -17 -4 -4 -6 -11 -7 -17 -4 -6 4 -8 -1 -3 -15
5 -17 2 -21 -14 -21 -11 0 -24 -6 -28 -13 -4 -7 -24 -23 -45 -35 -20 -12 -38
-29 -41 -36 -8 -21 -69 -48 -81 -36 -7 7 -6 10 2 10 13 0 165 151 158 157 -3
4 -86 -35 -126 -59 -8 -5 -23 -11 -32 -14 -10 -4 -18 -12 -18 -19 0 -7 -7 -18
-15 -25 -13 -10 -15 -9 -15 8 0 29 -28 18 -36 -13 -3 -13 -15 -32 -26 -42 -21
-18 -21 -18 -14 12 4 17 14 43 22 59 18 38 19 37 -15 25 -26 -9 -30 -17 -39
-67 -6 -34 -6 -66 -1 -80 12 -31 12 -32 -6 -26 -12 5 -15 -3 -16 -37 0 -41 -1
-42 -11 -19 -6 14 -10 30 -10 36 1 5 -6 19 -16 30 -10 10 -21 27 -25 37 -10
26 -35 32 -57 12 -18 -16 -20 -17 -20 -2 0 10 5 17 10 17 6 0 10 5 10 11 0 6
9 24 21 40 18 26 19 31 6 50 -17 23 -32 10 -22 -20 3 -11 1 -22 -5 -26 -6 -3
-10 3 -10 14 0 27 -15 27 -35 -1 -13 -19 -17 -21 -25 -8 -6 10 -3 18 11 28 11
7 17 18 13 24 -8 13 -64 -41 -64 -63 0 -9 -7 -23 -16 -30 -12 -10 -14 -23 -10
-50 3 -22 2 -40 -4 -44 -13 -8 -44 -76 -41 -92 1 -7 -3 -13 -9 -13 -5 0 -10 5
-10 10 0 6 -9 10 -20 10 -12 0 -20 7 -20 17 0 13 -3 14 -12 5 -8 -8 -8 -15 0
-25 7 -8 10 -34 7 -63 -2 -27 -5 -58 -5 -69 -1 -12 -4 -15 -7 -7 -4 10 -8 9
-19 -5 -12 -17 -14 -15 -21 17 -4 19 -6 39 -5 43 2 5 -3 7 -10 5 -7 -3 -17
-31 -21 -64 -5 -32 -13 -63 -18 -69 -15 -15 -10 -57 9 -71 13 -11 14 -15 4
-22 -26 -18 -37 -405 -12 -451 6 -12 9 -30 6 -38 -4 -9 -7 -77 -7 -151 0 -139
13 -226 52 -347 11 -33 26 -85 33 -116 16 -69 38 -119 52 -119 5 0 18 6 29 13
15 12 18 26 16 82 -1 37 -4 72 -7 77 -9 14 -3 434 6 463 5 13 -8 90 -22 133
-8 26 -6 40 10 70 13 26 19 55 18 88 -2 27 2 78 7 114 5 36 10 83 10 105 2 38
4 40 35 43 24 2 32 8 28 17 -3 8 4 25 15 38 10 14 19 31 19 39 0 7 7 24 16 36
15 21 14 26 -4 66 -22 45 -46 71 -60 62 -13 -8 -28 46 -22 79 6 28 7 27 14
-17 7 -44 28 -69 42 -47 3 6 12 8 20 5 11 -4 14 4 14 34 0 47 15 62 16 16 0
-18 4 -41 8 -52 8 -18 9 -18 15 -1 6 15 11 12 32 -21 l26 -39 -24 -21 c-21
-19 -16 -41 6 -28 5 4 11 3 13 -1 1 -5 17 -18 35 -30 l32 -23 16 28 c9 15 35
36 58 46 23 11 48 26 55 33 7 7 20 13 28 13 8 0 14 5 14 10 0 6 16 10 36 10
28 0 35 3 30 15 -3 8 0 15 5 15 7 0 9 11 7 25 -3 14 -1 28 3 31 5 3 9 -2 9
-10 0 -27 14 -18 37 23 13 22 33 43 45 47 13 4 27 12 33 19 5 7 21 15 35 18
14 3 35 9 48 12 21 7 22 5 16 -19 -4 -19 -2 -26 8 -26 8 0 23 -6 33 -14 18
-13 18 -14 -3 -48 -29 -47 -57 -78 -71 -78 -6 0 -11 -4 -11 -10 0 -28 61 -2
98 41 13 16 33 34 44 40 19 10 20 9 16 -15 -6 -30 -2 -31 39 -11 23 12 36 12
59 3 27 -10 37 -8 85 18 30 15 67 37 84 49 16 11 46 28 65 39 34 18 34 18 20
0 -8 -11 -21 -25 -29 -31 -13 -11 -13 -13 2 -13 9 0 17 5 17 11 0 17 70 3 85
-17 6 -9 17 -14 23 -10 15 9 102 27 135 28 20 0 27 5 27 20 0 15 5 18 20 13
13 -4 20 -2 21 7 0 7 2 24 5 37 5 29 -13 89 -33 113 -8 9 -13 23 -10 30 7 21
-41 67 -65 60 -12 -3 -18 -11 -15 -21 3 -9 10 -31 15 -48 7 -20 7 -33 1 -33
-5 0 -9 4 -9 10 0 5 -7 7 -15 4 -11 -5 -13 -2 -9 10 3 9 2 16 -2 16 -5 0 -10
10 -11 23 -1 12 -3 38 -5 57 -4 45 -21 75 -38 65 -8 -5 -10 -20 -7 -41 3 -19
2 -34 -4 -34 -5 0 -9 -11 -9 -25 0 -28 -27 -35 -36 -10 -4 8 -10 13 -15 10
-14 -9 -31 35 -23 63 4 15 6 45 5 67 -1 38 -1 39 14 21 8 -11 15 -24 15 -30 0
-6 5 -5 12 2 8 8 8 15 0 25 -7 8 -9 16 -6 19 3 4 -2 20 -10 37 -10 19 -12 32
-6 36 6 3 10 -3 10 -14 0 -12 5 -21 10 -21 6 0 10 5 10 10 0 24 29 7 35 -21 5
-20 11 -29 21 -25 9 4 14 -2 14 -15 0 -11 7 -22 15 -25 8 -4 15 -14 15 -24 0
-10 9 -28 20 -41 23 -29 25 -22 5 17 -8 16 -15 40 -15 54 1 22 2 23 13 9 11
-14 15 -15 31 -4 10 8 15 19 11 25 -5 9 -1 10 14 5 30 -9 26 2 -20 57 -23 27
-39 52 -35 55 3 3 1 14 -4 24 -6 10 -6 20 -1 23 8 5 25 -29 22 -46 -1 -5 10
-8 24 -8 26 0 56 -24 87 -70 13 -19 19 -22 26 -12 6 9 12 6 21 -12 8 -14 19
-22 27 -19 19 7 18 23 -2 23 -8 0 -12 5 -9 10 11 17 -25 117 -54 153 -9 10
-10 17 -3 17 6 0 16 -9 22 -19 5 -11 23 -26 39 -34 26 -13 29 -13 24 0 -3 8
-6 24 -7 35 -1 14 -13 24 -41 34 -24 8 -41 10 -43 4 -2 -6 -16 -10 -30 -10
l-27 -1 23 -19 c22 -18 22 -19 2 -25 -12 -4 -31 -1 -43 7 -12 8 -40 25 -61 38
l-39 24 7 -30 c5 -22 1 -19 -17 16 l-24 45 24 3 c29 4 29 21 2 51 -23 24 -21
35 4 25 9 -3 19 -21 23 -40 5 -29 11 -34 42 -40 21 -4 43 -2 54 5 14 8 23 8
38 -1 21 -13 36 -6 25 12 -4 6 -38 25 -76 42 -70 31 -76 37 -42 42 19 3 32 36
14 36 -13 0 -51 36 -51 48 0 5 14 6 31 4 22 -3 30 -1 25 7 -4 6 -20 11 -36 11
-15 0 -30 7 -34 15 -3 8 -10 15 -16 15 -6 0 -18 -7 -26 -15 -9 -8 -20 -15 -25
-15 -5 0 -9 7 -9 15 0 8 7 15 15 15 9 0 12 6 8 16 -5 14 -1 16 26 12 19 -3 36
1 42 9 9 10 5 13 -18 13 -35 0 -69 22 -59 38 4 7 16 12 28 12 12 0 18 5 15 13
-2 6 2 18 9 25 8 7 14 8 14 2 0 -5 5 -10 10 -10 6 0 10 7 10 15 0 8 7 15 15
15 8 0 15 -4 15 -10 0 -5 -5 -10 -11 -10 -5 0 -7 -5 -4 -11 4 -5 12 -8 18 -6
7 2 34 -2 62 -9 32 -9 51 -10 55 -3 4 5 15 0 26 -12 10 -13 13 -19 6 -15 -7 4
-22 4 -34 0 l-21 -6 24 -19 24 -19 -22 0 c-16 0 -23 -6 -23 -20 0 -14 -5 -18
-16 -13 -28 10 -11 -21 19 -35 28 -14 34 -26 17 -37 -6 -4 -4 -17 5 -35 8 -16
15 -31 15 -35 0 -11 -20 -4 -37 14 -20 22 -64 31 -70 16 -4 -14 60 -84 93
-102 27 -14 64 -18 64 -7 0 4 -8 13 -17 20 -16 12 -15 13 10 14 28 0 28 -1 21
-46 -5 -34 -3 -48 8 -57 19 -15 31 -47 17 -47 -5 0 -7 -11 -3 -26 4 -15 1 -36
-7 -50 -9 -17 -10 -27 -3 -32 15 -9 44 -73 42 -92 -3 -37 3 -50 22 -50 11 0
20 -4 20 -9 0 -6 9 -9 20 -8 24 2 25 15 6 53 -17 32 -11 51 11 32 12 -10 17
-9 28 5 11 16 13 15 30 -3 10 -12 24 -19 31 -16 12 5 54 -33 54 -49 0 -23 67
-116 87 -121 24 -7 46 -28 49 -50 2 -10 -6 -14 -24 -12 -51 5 -28 -23 51 -65
73 -39 90 -58 67 -72 -5 -3 -10 0 -10 8 0 8 -38 34 -87 58 -49 24 -89 47 -91
51 -6 14 -32 -5 -32 -24 0 -18 -1 -18 -17 -3 -16 16 -17 16 -25 -4 -4 -12 -5
-28 -1 -37 4 -12 0 -15 -23 -12 -35 4 -45 39 -19 68 11 12 13 20 6 25 -6 3
-11 0 -11 -7 -1 -21 -17 12 -25 51 -6 28 -5 33 8 28 12 -4 14 -2 10 9 -4 12
-14 14 -36 10 -17 -3 -36 -1 -43 5 -9 7 -14 8 -14 1 0 -21 -33 -22 -47 -2 -8
11 -21 20 -28 20 -8 0 -22 12 -32 28 -9 15 -19 29 -21 32 -1 2 -8 -2 -13 -10
-9 -12 -9 -11 -4 5 16 44 17 55 6 55 -6 0 -11 9 -11 21 0 12 -4 17 -11 13 -6
-3 -8 -16 -5 -28 2 -11 -1 -32 -8 -45 -13 -24 -13 -24 -20 13 -5 27 -12 36
-26 36 -16 0 -18 -4 -10 -24 5 -13 6 -34 3 -47 -3 -13 -2 -21 2 -16 10 9 35
-46 35 -78 0 -13 -7 -25 -15 -28 -13 -5 -13 -11 1 -44 8 -21 19 -46 24 -55 7
-12 6 -35 -1 -70 -9 -43 -9 -53 2 -57 8 -2 27 -17 43 -33 15 -16 31 -26 34
-24 3 3 12 -3 20 -15 20 -29 42 -8 36 36 -3 26 -1 33 10 29 10 -4 12 1 9 19
-6 31 26 48 34 18 3 -12 11 -17 19 -14 8 3 22 2 32 -2 14 -6 12 -9 -13 -21
-26 -11 -27 -13 -8 -14 24 0 43 -22 25 -28 -7 -2 -12 -10 -12 -17 0 -13 43
-27 142 -45 25 -5 60 -16 77 -25 28 -14 31 -14 31 0 0 14 5 13 29 -4 26 -19
30 -19 33 -5 2 13 8 11 31 -11 l27 -28 0 27 c0 14 5 26 10 26 6 0 10 -4 10
-10 0 -5 6 -10 13 -10 23 0 37 -21 26 -41 -6 -12 -6 -25 0 -36 5 -10 12 -25
15 -34 5 -19 104 -69 135 -69 11 0 23 -5 27 -11 3 -6 17 -8 30 -5 27 7 100
-27 117 -56 7 -11 27 -26 45 -35 18 -8 47 -35 64 -59 17 -24 39 -44 47 -44 17
0 71 -55 71 -71 0 -4 -7 -6 -15 -3 -23 9 -18 -9 10 -42 22 -25 25 -37 22 -83
-3 -43 2 -65 22 -105 13 -28 28 -53 31 -56 12 -8 32 -79 26 -89 -3 -5 1 -14 9
-21 8 -7 15 -22 15 -34 0 -12 4 -26 10 -32 5 -5 11 -35 14 -68 3 -32 11 -76
16 -97 6 -22 12 -68 13 -104 3 -58 6 -68 35 -98 39 -41 43 -65 7 -41 -14 9
-28 14 -31 11 -6 -6 8 -106 31 -217 17 -81 34 -302 24 -310 -3 -3 -11 -39 -18
-80 -6 -41 -16 -88 -21 -105 -6 -16 -15 -49 -21 -73 -5 -24 -20 -53 -32 -65
-25 -25 -68 -112 -60 -121 3 -3 1 -12 -6 -19 -6 -8 -11 -25 -11 -38 1 -13 -1
-68 -3 -122 -4 -85 -8 -103 -31 -135 -14 -21 -26 -50 -26 -65 0 -20 -5 -27
-20 -27 -11 0 -20 -7 -20 -15 0 -8 -5 -15 -10 -15 -6 0 -10 -6 -9 -12 1 -7 -1
-26 -6 -41 -5 -18 -3 -33 4 -40 6 -6 11 -20 11 -32 -1 -19 -1 -19 -14 -2 -13
17 -15 14 -24 -28 -5 -25 -8 -54 -5 -64 2 -9 -5 -28 -16 -42 -14 -17 -20 -19
-21 -9 0 13 -1 13 -11 0 -8 -11 -9 -8 -4 15 6 28 6 29 -13 12 -20 -18 -34 -14
-25 9 3 8 2 22 -2 32 -4 9 -7 29 -6 45 4 44 -14 31 -39 -28 -13 -30 -30 -55
-37 -55 -10 0 -12 -6 -8 -21 5 -13 3 -19 -3 -15 -5 3 -13 -1 -16 -10 -4 -12
-2 -15 9 -10 8 3 15 1 15 -5 0 -6 -9 -13 -20 -16 -15 -4 -18 -11 -13 -34 3
-17 1 -29 -5 -29 -5 0 -14 -12 -20 -27 -5 -16 -26 -52 -46 -82 -20 -29 -36
-62 -36 -73 0 -17 -4 -19 -26 -14 -24 6 -25 6 -10 -9 13 -13 13 -20 3 -35 -12
-20 -16 -22 -52 -24 -15 -1 -19 -7 -17 -23 2 -17 -1 -21 -12 -17 -11 4 -14 0
-11 -14 2 -12 -3 -26 -10 -32 -8 -6 -11 -18 -8 -26 3 -7 -2 -17 -11 -20 -9 -3
-16 -12 -16 -20 0 -8 -4 -14 -10 -14 -6 0 -6 -9 0 -26 14 -36 12 -54 -5 -54
-9 0 -15 -9 -15 -25 0 -16 -6 -25 -16 -25 -12 0 -15 -7 -12 -25 3 -13 2 -24
-1 -23 -33 3 -52 -4 -47 -17 7 -18 -14 -55 -30 -55 -7 0 -15 -12 -18 -27 -10
-41 -30 -83 -39 -83 -4 0 -10 7 -13 15 -5 11 -11 12 -24 5 -10 -6 -26 -7 -34
-4 -10 4 -19 -3 -27 -20 -13 -28 -24 -33 -32 -13 -3 6 -6 -2 -6 -19 -1 -37
-10 -48 -28 -33 -10 9 -17 8 -28 -1 -15 -12 -21 -4 -16 23 1 5 -3 5 -9 2 -6
-4 -9 -14 -5 -22 5 -14 3 -14 -12 -2 -15 12 -16 12 -10 -4 4 -11 4 -23 1 -28
-9 -15 -34 10 -27 27 3 9 -2 14 -16 14 -15 0 -21 -6 -21 -23 0 -16 -6 -23 -20
-23 -12 0 -19 5 -16 12 3 7 1 25 -4 41 -4 15 -9 21 -9 13 -1 -13 -2 -13 -11 0
-7 10 -8 1 -4 -30 4 -25 10 -47 14 -50 4 -3 2 -11 -6 -18 -15 -13 -19 -6 -15
26 1 7 -9 12 -22 12 -14 0 -27 7 -31 15 -3 8 -11 15 -17 15 -8 0 -8 -4 1 -15
10 -12 10 -19 2 -27 -14 -14 -13 -14 -34 31 l-16 35 -10 -35 -10 -34 -1 33
c-1 21 -6 32 -16 32 -15 0 -31 -42 -22 -57 3 -5 2 -15 -4 -23 -7 -12 -9 -9 -9
10 0 14 -5 32 -10 40 -8 12 -10 11 -10 -7 0 -13 -4 -23 -10 -23 -5 0 -7 13 -3
30 4 23 2 30 -10 30 -8 0 -17 5 -19 11 -2 7 -13 9 -26 5 -17 -6 -21 -13 -16
-31 4 -18 1 -25 -15 -30 -12 -3 -19 -11 -16 -16 4 -5 1 -9 -4 -9 -6 0 -11 -11
-11 -24 0 -14 -4 -28 -10 -31 -6 -3 -10 3 -10 14 0 12 -6 21 -14 21 -8 0 -16
6 -18 12 -3 9 -9 8 -22 -4 -10 -11 -23 -14 -34 -10 -14 6 -14 7 6 10 25 4 28
19 8 44 -12 16 -15 16 -36 -7 -39 -42 -46 -31 -23 33 3 6 1 12 -5 12 -5 0 -12
-9 -15 -20 -3 -11 -12 -20 -21 -20 -12 0 -14 7 -10 33 5 29 4 30 -8 12 -16
-24 -58 -33 -58 -12 0 17 -37 30 -46 16 -9 -16 -24 1 -25 29 0 15 -3 21 -6 15
-8 -20 -41 -15 -48 7 -3 11 -13 20 -21 20 -8 0 -14 6 -14 14 0 8 -8 21 -19 28
-19 13 -21 18 -21 43 0 8 -4 15 -10 15 -5 0 -10 -7 -10 -15 0 -8 -5 -15 -11
-15 -7 0 -10 12 -7 30 4 29 -5 40 -17 20 -12 -19 -23 -10 -30 27 -5 30 -9 34
-16 21 -17 -31 -38 -11 -29 28 6 25 5 34 -3 31 -7 -2 -11 -12 -9 -22 3 -13 -1
-16 -14 -11 -14 6 -16 1 -11 -31 5 -26 3 -33 -3 -23 -5 8 -10 38 -11 65 -1 48
-1 49 -10 18 -5 -18 -6 -49 -1 -70 8 -41 5 -83 -6 -83 -4 0 -8 19 -8 43 -1 23
-4 56 -7 72 -3 17 -6 34 -6 39 -1 5 -7 3 -15 -3 -11 -9 -16 -9 -21 0 -4 6 -2
15 5 19 18 11 3 29 -20 23 -11 -3 -17 -9 -14 -14 3 -5 0 -9 -5 -9 -6 0 -11 3
-11 8 0 4 -19 27 -41 52 -22 25 -35 46 -28 49 6 2 -3 12 -20 22 -17 10 -31 26
-31 34 0 8 -4 15 -10 15 -5 0 -10 5 -10 11 0 8 5 7 15 -1 28 -23 26 -3 -2 29
-16 18 -37 31 -51 31 -12 0 -25 7 -29 16 -3 8 -12 13 -20 10 -11 -4 -13 -1 -8
14 18 56 15 81 -11 92 -15 7 -27 23 -31 40 -5 24 -9 27 -27 22 -19 -6 -19 -5
-7 10 12 14 11 20 -6 39 -12 12 -24 32 -27 43 -4 12 -15 24 -24 27 -15 3 -17
12 -14 42 4 30 2 36 -9 30 -11 -6 -12 -5 -1 6 17 18 15 29 -4 29 -10 0 -14 6
-10 15 3 8 1 15 -4 15 -14 0 -21 -36 -14 -67 4 -15 20 -55 35 -89 16 -34 29
-66 29 -73 0 -6 11 -21 25 -33 13 -11 22 -25 19 -30 -3 -5 1 -17 9 -26 19 -23
31 -53 28 -75 -1 -9 2 -17 8 -17 5 0 9 -8 9 -18 -2 -26 26 -85 56 -118 67 -74
116 -136 116 -144 0 -6 4 -10 10 -10 14 0 79 -72 80 -88 0 -7 4 -11 9 -8 13 9
71 -24 71 -40 0 -8 -5 -14 -12 -14 -6 0 -2 -9 10 -20 26 -25 48 -26 62 -2 8
12 10 13 9 2 -4 -30 14 -69 34 -76 12 -4 23 -2 25 5 2 6 8 11 14 11 5 0 7 -9
3 -19 -4 -13 4 -30 24 -53 21 -24 28 -41 24 -56 -7 -29 40 -76 68 -67 16 5 20
3 17 -11 -2 -9 3 -19 10 -21 10 -4 12 7 8 48 -2 30 -2 46 1 36 2 -9 14 -18 26
-18 17 -1 18 -2 4 -6 -13 -4 -17 -14 -15 -49 2 -24 6 -44 11 -44 4 0 7 4 7 10
0 5 7 7 15 4 8 -4 15 -12 15 -20 0 -8 6 -14 13 -14 6 0 18 -13 24 -28 21 -46
136 -74 146 -34 4 14 5 14 6 -3 1 -16 9 -21 38 -23 20 -1 40 -7 44 -14 4 -6
21 -11 38 -11 16 0 28 -4 25 -8 -2 -4 0 -10 5 -13 5 -4 12 -2 16 4 8 13 55 13
55 0 0 -5 16 -10 35 -10 26 0 33 -3 29 -15 -9 -22 48 -23 74 -2 10 8 12 7 10
-2 -2 -8 5 -15 16 -16 10 -2 23 -8 29 -14 6 -6 19 -11 29 -11 10 0 21 -6 23
-12 3 -7 19 -14 37 -15 17 -1 34 -6 37 -10 3 -5 43 -8 89 -8 45 0 82 -3 82 -8
0 -4 5 -5 12 -1 7 5 33 9 58 10 74 3 131 16 137 30 3 8 9 14 14 14 13 0 129
92 129 102 0 4 18 24 40 44 22 20 38 39 35 43 -5 9 17 29 67 59 20 13 40 31
43 42 3 10 12 21 20 24 8 3 15 12 15 21 0 8 6 15 13 15 15 1 87 84 92 107 5
26 35 82 47 89 7 4 8 2 4 -4 -4 -7 -3 -12 3 -12 5 0 14 6 18 13 4 6 17 17 28
23 11 6 20 17 21 25 0 15 100 119 113 119 4 0 18 -57 31 -127 12 -71 29 -143
36 -161 7 -18 50 -73 96 -123 45 -49 99 -120 121 -157 l38 -67 -6 -125 c-9
-202 -15 -272 -25 -323 -12 -60 -13 -187 -1 -187 5 0 12 17 16 38 11 63 38
137 52 145 7 4 13 16 13 26 0 10 7 24 15 31 8 7 15 17 15 22 0 6 -6 6 -14 -1
-12 -10 -14 -6 -10 26 2 21 5 60 7 86 2 27 9 52 16 57 8 4 10 13 7 19 -4 6 -2
11 5 11 11 0 9 27 -6 64 -7 16 -5 18 18 14 22 -4 27 -1 27 14 0 26 16 14 36
-28 21 -45 25 -40 13 16 -12 55 -20 120 -15 120 2 0 11 -15 20 -32 9 -18 28
-52 41 -75 13 -24 20 -45 15 -48 -10 -6 -1 -43 17 -70 7 -11 13 -29 13 -40 0
-11 7 -33 15 -49 8 -15 15 -36 15 -45 0 -9 4 -21 9 -26 15 -17 31 -109 19
-116 -6 -4 -3 -9 6 -12 10 -4 13 -15 10 -31 -2 -15 0 -26 6 -26 6 0 9 -4 6 -9
-3 -4 2 -15 12 -24 9 -9 28 -37 41 -64 13 -26 30 -60 38 -75 7 -14 10 -34 7
-43 -4 -9 2 -28 14 -45 14 -18 22 -46 23 -81 2 -30 6 -58 10 -64 16 -22 14
-87 -3 -99 -14 -10 -15 -19 -6 -59 5 -26 14 -47 19 -47 5 0 9 -9 9 -19 0 -33
29 -41 34 -9 1 7 5 19 9 26 5 7 5 21 2 32 -5 16 -2 20 18 20 30 0 50 -22 52
-57 0 -13 9 -29 18 -35 15 -8 16 -12 6 -24 -9 -11 -9 -18 -1 -26 15 -15 31 -1
27 22 -2 11 3 24 13 29 13 7 14 12 3 24 -7 9 -11 24 -9 34 2 10 -3 18 -12 19
-8 0 -28 7 -45 14 -16 7 -42 13 -58 14 -18 1 -29 8 -34 21 -11 36 -10 85 4 96
7 7 13 22 13 35 0 28 6 30 26 9 9 -8 20 -15 25 -15 5 0 0 9 -10 19 -11 11 -23
37 -27 58 -4 21 -10 40 -14 43 -23 15 -10 110 15 110 25 0 27 19 5 49 -21 30
-15 46 14 35 29 -11 37 6 19 37 -10 16 -21 29 -26 29 -5 0 -6 9 -2 19 3 11 1
22 -4 26 -7 4 -6 13 2 25 15 25 24 25 32 0 9 -27 34 -25 70 6 l30 26 -35 31
c-19 17 -27 28 -17 24 21 -8 22 2 1 31 -8 12 -24 22 -35 22 -10 0 -19 5 -19
11 0 6 -9 8 -20 4 -11 -4 -20 -2 -20 4 0 6 7 11 15 11 11 0 15 11 15 40 0 27
4 40 14 40 23 0 66 -40 81 -76 14 -34 45 -47 45 -19 0 14 4 14 37 0 21 -9 45
-25 55 -35 11 -11 23 -20 28 -20 17 0 11 -33 -10 -55 -19 -20 -19 -62 -1 -50
4 2 5 -9 3 -26 -3 -17 0 -29 7 -29 6 0 11 -5 11 -10 0 -6 14 -29 30 -52 17
-22 30 -49 30 -58 0 -26 157 -222 193 -241 17 -10 18 -8 12 13 -4 12 -16 31
-28 40 -12 10 -28 23 -35 29 -7 6 -10 19 -7 28 3 10 -3 29 -13 42 -10 13 -26
44 -36 69 -10 25 -22 53 -28 63 -16 32 -68 171 -68 184 0 7 11 20 24 28 20 13
32 14 62 6 34 -9 66 -4 37 6 -7 2 -9 11 -7 18 4 9 -4 16 -23 20 -34 8 -83 26
-184 71 -41 18 -89 36 -105 40 -33 8 -66 33 -58 45 6 10 -33 32 -48 27 -7 -3
-5 -10 5 -20 9 -8 13 -18 10 -21 -9 -10 -43 12 -43 28 0 8 -12 21 -28 29 -15
8 -36 23 -46 35 -19 21 -19 21 1 21 11 0 32 -9 47 -21 26 -21 36 -18 14 5 -47
44 -130 80 -98 41 7 -8 8 -15 2 -15 -14 0 -29 21 -37 52 -4 15 -18 34 -31 43
-14 9 -22 20 -19 25 6 9 -68 64 -107 79 -32 13 -108 69 -108 81 0 5 -14 29
-30 54 -19 27 -34 67 -40 100 -5 30 -16 66 -25 79 -29 45 -7 84 45 78 8 -1 66
-2 128 -2 62 0 110 -4 108 -8 -3 -4 8 -6 23 -3 23 3 34 -3 56 -32 37 -49 75
-59 269 -71 49 -3 92 -8 97 -11 13 -8 83 41 103 71 18 27 18 46 0 135 -4 19
-13 39 -20 43 -8 4 -14 15 -14 22 0 8 -6 15 -14 15 -7 0 -19 6 -25 14 -7 8
-31 18 -54 21 -23 4 -51 12 -61 17 -11 6 -54 10 -95 9 -42 -1 -100 5 -128 12
-45 12 -53 12 -53 1 0 -8 -9 -14 -20 -14 -25 0 -28 -45 -4 -58 13 -7 15 -17
10 -47 l-7 -37 -76 6 c-42 4 -80 9 -85 12 -5 3 -37 1 -71 -6 -39 -7 -76 -9
-100 -3 -39 8 -38 7 -98 125 -5 10 -6 25 -2 34 5 14 3 14 -15 -2 -12 -9 -19
-20 -17 -24 2 -4 -5 -6 -17 -6 -15 1 -22 -6 -23 -21 -1 -13 -4 -25 -6 -28 -3
-2 -41 -5 -84 -6 -74 -1 -80 0 -102 25 -13 15 -23 34 -23 43 0 11 -3 13 -12 5
-10 -8 -13 9 -12 82 1 71 7 109 28 168 14 42 26 92 26 111 0 19 8 45 19 58 32
42 62 110 56 128 -3 10 -1 31 5 46 6 15 15 59 20 97 6 38 15 78 21 89 11 22
33 15 25 -8 -3 -8 5 -33 18 -56 13 -23 33 -59 45 -81 13 -23 18 -42 13 -50 -5
-6 -9 -21 -10 -34 0 -12 -10 -34 -21 -48 -12 -15 -21 -35 -21 -46 0 -32 28
-75 64 -97 37 -23 50 -54 47 -116 -3 -67 -11 -95 -29 -95 -14 -1 -12 -5 7 -20
12 -11 27 -17 32 -14 5 3 6 -2 3 -10 -3 -9 -2 -16 4 -16 6 0 13 6 15 13 4 9 6
9 6 0 1 -7 13 -13 29 -13 17 0 38 -12 57 -31 43 -44 58 -50 87 -35 14 8 51 13
82 11 41 -1 56 2 56 12 0 7 -8 13 -17 14 -15 0 -15 2 2 9 11 5 15 9 8 9 -7 1
-11 19 -11 46 1 41 6 49 39 75 20 17 41 30 47 30 5 0 31 20 57 45 53 50 51 40
42 208 -6 91 -4 107 8 107 8 0 15 9 15 20 0 14 -7 20 -22 20 -21 1 -22 2 -5
14 9 7 17 23 17 34 0 28 39 53 81 52 93 -1 230 19 250 37 9 8 29 16 45 19 61
11 83 27 89 67 4 21 17 50 29 65 37 43 47 70 38 89 -32 64 -52 117 -52 141 0
30 -27 60 -79 87 -28 14 -34 14 -83 -5 -29 -11 -67 -20 -83 -20 -17 0 -36 -5
-42 -11 -6 -6 -41 -12 -79 -13 -86 -4 -113 -15 -151 -60 l-30 -36 -132 -1
c-72 0 -135 2 -139 5 -5 3 -23 -4 -41 -15 -32 -19 -34 -19 -47 -2 -7 10 -14
27 -15 38 -2 26 -2 27 7 50 6 17 4 16 -18 -5 -14 -14 -34 -40 -45 -58 -11 -18
-46 -60 -79 -93 -50 -53 -59 -59 -65 -43 -13 34 -10 111 5 124 8 6 16 25 18
42 2 24 10 34 33 42 17 6 47 27 69 46 21 19 53 47 70 62 17 14 28 29 25 33 -8
7 -74 -29 -109 -60 -50 -45 -99 -34 -86 19 3 14 1 28 -4 31 -8 5 -8 11 -1 19
6 7 13 44 16 82 10 112 18 139 43 139 34 1 46 21 47 82 1 41 -4 66 -17 84 -18
26 -17 27 7 43 14 9 34 34 45 55 22 43 46 56 88 46 26 -5 29 -3 38 37 9 42 10
43 49 43 34 0 40 3 43 23 4 28 -47 82 -78 82 -21 0 -55 -30 -111 -98 -15 -17
-29 -37 -32 -44 -3 -7 -19 -32 -36 -55 -22 -30 -35 -41 -47 -36 -15 5 -16 19
-11 106 4 54 12 106 18 113 9 11 9 20 -1 39 -11 21 -11 28 2 42 8 10 21 41 28
68 15 59 76 174 93 177 7 1 32 2 57 3 25 0 92 5 149 10 100 8 106 10 143 43
21 19 38 40 38 48 0 7 13 38 29 67 21 39 26 58 19 70 -5 10 -7 21 -3 26 8 14
-42 68 -69 75 -13 3 -26 15 -29 26 -3 11 -13 23 -23 27 -18 6 -42 27 -89 72
-5 6 -40 39 -76 74 -70 67 -66 58 -88 199 -4 28 -17 58 -30 72 -24 26 -22 41
11 64 29 21 21 61 -27 146 -44 77 -45 80 -45 170 1 72 3 87 12 71 16 -30 50
-65 62 -65 16 0 39 40 45 79 4 19 13 36 21 39 12 4 13 2 3 -9 -18 -18 -16 -42
1 -36 9 4 24 -7 39 -26 28 -38 37 -60 43 -106 3 -19 12 -40 22 -47 9 -7 13
-14 7 -14 -5 0 -21 -9 -35 -19 -24 -19 -24 -20 -6 -40 11 -12 24 -21 30 -21 6
0 32 -20 58 -45 35 -35 49 -58 58 -95 7 -28 17 -50 23 -50 13 0 92 -50 120
-75 11 -9 16 -23 12 -32 -3 -9 3 -26 16 -39 11 -12 27 -39 34 -60 11 -32 11
-42 0 -57 -10 -14 -11 -27 -4 -44 6 -15 5 -31 -1 -43 -15 -28 -12 -56 7 -76
10 -9 18 -22 19 -28 0 -6 2 -17 2 -24 1 -8 7 -12 14 -10 14 5 50 -28 68 -62 7
-14 15 -20 17 -13 4 12 38 -6 126 -69 28 -21 67 -41 85 -44 100 -19 380 -1
582 38 97 18 104 22 129 70 l25 45 -35 69 c-70 137 -107 201 -143 253 -21 29
-35 55 -32 58 6 6 -19 57 -46 93 -10 14 -36 48 -57 76 -21 28 -46 64 -54 80
-9 16 -34 49 -56 74 -23 25 -41 50 -41 56 0 6 -9 19 -20 29 -29 27 -83 174
-74 205 19 64 28 160 15 160 -5 0 -23 21 -38 48 -15 26 -31 49 -35 50 -4 2 -8
12 -8 22 0 10 -7 20 -15 24 -8 3 -20 17 -25 31 -5 14 -16 25 -25 25 -10 0 -15
10 -15 30 0 24 -4 30 -21 30 -26 0 -105 46 -113 65 -3 8 -12 15 -21 15 -10 0
-15 10 -15 29 0 39 -57 101 -92 101 -19 0 -51 26 -121 95 -93 93 -95 96 -111
166 -9 39 -16 78 -16 86 0 8 -13 40 -30 70 -16 30 -30 60 -30 68 0 14 21 25
52 25 14 0 18 5 15 15 -7 17 9 30 18 15 10 -16 25 -11 25 9 0 30 25 45 51 30
16 -8 24 -9 27 -1 5 17 62 -53 62 -76 0 -11 7 -23 16 -26 8 -3 12 -10 9 -16
-3 -5 -2 -10 4 -10 5 0 12 6 15 13 5 10 7 10 12 0 3 -7 9 -13 14 -13 4 0 27
-12 49 -27 39 -25 54 -53 30 -53 -8 0 -8 -4 0 -14 9 -11 9 -19 -1 -36 -8 -13
-9 -23 -3 -28 12 -9 44 -61 52 -84 3 -10 9 -18 14 -18 11 0 40 -56 33 -63 -3
-3 4 -10 15 -17 12 -6 21 -21 21 -35 0 -26 18 -74 35 -90 5 -6 26 -10 45 -10
46 2 100 -46 100 -87 0 -15 4 -28 10 -28 5 0 12 -11 16 -25 3 -14 15 -42 25
-62 10 -21 19 -43 19 -50 0 -7 7 -13 15 -13 8 0 15 -6 15 -12 -1 -7 14 -44 32
-81 31 -64 35 -67 62 -62 33 6 71 -27 82 -70 3 -14 19 -36 34 -48 15 -13 37
-44 49 -68 11 -24 31 -60 43 -79 11 -19 36 -64 53 -100 34 -69 84 -130 107
-130 7 0 19 4 26 8 18 12 39 139 46 286 4 70 11 136 16 146 24 45 4 157 -35
200 -8 9 -21 34 -28 55 -15 42 -46 70 -54 48 -13 -37 -128 0 -204 66 -53 45
-61 67 -64 183 -2 95 -2 98 -38 144 -37 48 -40 59 -37 147 1 27 -3 47 -9 47
-6 0 -15 9 -21 19 -8 17 -6 22 16 33 16 8 31 27 38 48 6 19 19 36 29 38 14 3
16 0 7 -22 -11 -29 0 -41 31 -31 11 4 27 1 35 -6 18 -14 54 -86 54 -106 0 -45
110 -189 152 -198 17 -4 33 -16 38 -28 17 -46 79 -105 115 -111 70 -13 79 -3
115 133 39 143 26 204 -70 336 -16 22 -29 48 -30 58 0 22 -59 127 -71 127 -5
0 -9 5 -9 10 0 6 -10 26 -22 45 l-23 35 -594 0 -593 0 7 -27 c4 -16 3 -25 -1
-21 -9 10 -54 -51 -54 -74 0 -22 -32 -24 -50 -3 -7 8 -18 15 -24 15 -6 0 -36
25 -66 55 l-54 55 -431 0 c-361 0 -435 -3 -459 -15 -15 -8 -32 -12 -37 -9 -28
17 -133 19 -982 21 l-928 3 3 -191z m2452 122 c17 -19 17 -20 -18 -26 -23 -5
-42 -3 -51 5 -27 22 -17 31 41 39 6 0 19 -8 28 -18z m-1607 -2 c42 0 49 -13
18 -33 -22 -14 -25 -15 -25 -1 0 11 -11 15 -39 15 -24 0 -41 5 -44 14 -5 11 1
13 26 10 18 -3 46 -5 64 -5z m1125 -11 c-9 -9 -15 -9 -24 0 -9 9 -7 12 12 12
19 0 21 -3 12 -12z m-767 -18 c4 -6 14 -10 23 -9 29 4 79 -11 96 -30 9 -9 18
-31 22 -47 l6 -30 -60 0 c-61 1 -102 22 -102 52 0 7 -9 18 -21 24 -20 11 -20
12 -3 31 19 21 30 24 39 9z m-585 -61 c0 -25 -63 -62 -91 -54 -26 9 -24 24 5
35 13 5 27 14 31 19 8 14 55 14 55 0z m68 -36 c53 -40 67 -63 37 -63 -18 0
-19 -5 -3 -29 9 -14 8 -23 -5 -42 -15 -20 -17 -21 -17 -5 0 16 -5 18 -39 12
-22 -3 -47 -3 -55 0 -17 7 -22 54 -6 54 6 0 10 -7 10 -15 0 -12 10 -15 45 -13
39 3 45 6 45 26 0 12 -5 22 -11 22 -6 0 -8 -7 -5 -16 4 -11 1 -14 -11 -12 -10
2 -19 12 -22 23 -4 25 -18 34 -51 36 l-25 1 25 8 c14 4 21 8 16 9 -11 1 13 31
26 31 5 0 26 -12 46 -27z m777 -24 c5 -6 -4 -8 -24 -5 -18 2 -40 11 -49 20
-14 14 -12 14 24 5 21 -6 43 -15 49 -20z m-638 5 c5 -14 -49 -26 -61 -13 -6 6
-5 9 3 9 7 0 9 5 6 11 -5 7 3 9 21 7 15 -2 29 -8 31 -14z m-327 -9 c0 -8 -4
-15 -8 -15 -5 0 -9 7 -9 15 0 8 4 15 9 15 4 0 8 -7 8 -15z m690 1 c-14 -7 -29
-10 -34 -8 -11 6 20 20 44 21 8 0 4 -5 -10 -13z m400 -17 c0 -12 -24 -11 -55
3 -39 17 -30 27 15 16 22 -6 40 -14 40 -19z m-1165 10 c4 -6 -2 -13 -13 -16
-12 -3 -18 -11 -15 -19 5 -15 -39 -30 -56 -19 -16 10 -13 25 7 32 9 4 23 13
30 20 16 16 38 17 47 2z m681 -26 c-11 -11 -17 4 -9 23 7 18 8 18 11 1 2 -10
1 -21 -2 -24z m281 31 c-3 -3 -12 -4 -19 -1 -8 3 -5 6 6 6 11 1 17 -2 13 -5z
m553 -26 c33 -4 38 -9 83 -98 26 -52 47 -108 47 -125 0 -31 16 -61 58 -105 13
-14 30 -38 39 -55 8 -16 31 -52 51 -79 19 -28 42 -66 51 -86 9 -20 32 -50 52
-68 19 -17 44 -48 54 -69 11 -21 27 -47 35 -58 8 -11 -4 -4 -27 15 -23 19 -45
47 -49 61 -4 17 -19 32 -40 43 -42 20 -44 20 -44 1 0 -9 11 -20 25 -25 14 -5
25 -14 25 -20 0 -5 7 -10 15 -10 8 0 14 -3 13 -7 -1 -5 14 -26 35 -48 20 -22
37 -44 37 -49 0 -6 11 -21 25 -36 16 -17 21 -30 16 -39 -7 -11 -12 -11 -31 2
-12 8 -29 13 -36 10 -8 -3 -14 -1 -14 4 0 5 -9 9 -20 9 -11 0 -20 -7 -20 -15
0 -19 -55 44 -71 82 -6 15 -17 27 -24 27 -7 0 -24 25 -39 55 -17 36 -32 55
-43 55 -10 0 -29 16 -41 35 -13 18 -35 41 -48 50 -13 8 -24 24 -24 34 0 23
-26 35 -34 15 -3 -8 -10 -14 -15 -14 -6 0 -8 6 -5 13 2 7 -4 22 -14 32 -24 27
-68 100 -56 94 5 -3 21 -11 36 -18 15 -8 34 -11 44 -7 16 6 16 8 -1 26 -10 11
-24 20 -31 20 -8 0 -23 20 -35 44 -11 24 -29 52 -40 62 -18 17 -19 16 -19 -10
0 -16 9 -41 20 -56 20 -28 20 -28 0 -23 -13 3 -24 19 -30 43 -12 43 -37 59
-55 34 -6 -10 -17 -14 -23 -10 -7 4 -12 2 -12 -3 0 -6 7 -11 15 -11 8 0 15 -6
15 -14 0 -7 9 -16 20 -19 11 -3 23 -13 26 -24 13 -41 28 -62 48 -67 20 -6 20
-7 3 -17 -17 -10 -16 -12 8 -30 25 -21 36 -47 13 -33 -8 5 -6 -2 3 -16 9 -14
29 -27 45 -30 23 -4 30 -11 32 -33 4 -31 -5 -35 -24 -9 -12 15 -13 14 -14 -12
0 -23 3 -27 20 -23 16 4 20 0 20 -18 0 -35 28 -95 45 -95 11 0 13 8 9 33 l-6
32 21 -25 c13 -16 19 -32 15 -45 -6 -20 -10 -48 -12 -97 -1 -16 -8 -28 -15
-28 -8 0 -25 12 -38 28 -14 15 -35 34 -47 42 -12 8 -23 27 -24 41 -2 30 -28
29 -28 -1 0 -10 -7 -24 -17 -31 -15 -13 -16 -10 -10 27 5 29 2 51 -8 70 -16
32 -20 58 -5 34 10 -15 11 -5 15 97 1 31 -25 58 -33 34 -7 -21 -22 -11 -22 14
0 14 -7 28 -15 31 -11 5 -12 11 -5 24 11 21 -16 80 -36 80 -22 0 -24 -31 -4
-52 24 -26 26 -48 5 -48 -8 0 -15 7 -15 16 0 9 -10 24 -22 34 -22 18 -22 20
-6 49 14 26 14 30 1 35 -11 4 -13 2 -9 -9 3 -8 1 -15 -4 -15 -6 0 -10 7 -10
15 0 8 -4 15 -10 15 -5 0 -10 -7 -10 -15 0 -23 -17 -18 -24 8 -3 12 -17 35
-32 50 -25 27 -50 87 -36 87 4 0 14 -9 22 -20 8 -11 20 -20 27 -20 15 0 17 26
3 35 -5 3 -10 17 -10 31 0 23 2 24 41 18 33 -6 41 -4 37 7 -3 8 -13 16 -24 18
-32 6 -45 21 -34 41 14 27 13 32 -12 28 -11 -2 -23 3 -26 10 -3 11 6 12 44 6
27 -3 57 -11 67 -16 18 -9 18 -10 0 -24 -17 -13 -17 -15 7 -35 14 -12 32 -35
40 -52 10 -20 23 -32 35 -32 11 0 26 -6 33 -12 19 -18 32 -16 25 4 -6 15 -3
15 23 -2 75 -50 79 -54 67 -74 -13 -20 -8 -31 14 -31 7 0 22 -9 33 -20 11 -11
27 -20 36 -20 13 0 13 5 -6 33 -12 17 -29 49 -37 70 -9 20 -20 37 -24 37 -9 0
-81 57 -159 129 -57 52 -58 54 -41 72 10 11 25 17 33 14 8 -3 25 -2 39 3 13 6
31 6 39 2 9 -5 31 -10 50 -12z m1870 3 c0 -5 3 -23 6 -40 4 -20 3 -31 -5 -31
-6 0 -11 10 -11 23 0 17 -2 19 -10 7 -6 -10 -3 -21 12 -37 21 -23 21 -23 2
-38 -23 -18 -36 -18 -69 -3 -29 13 -31 21 -10 42 8 8 15 20 15 26 0 21 33 60
51 60 11 0 19 -4 19 -9z m-3306 -28 c3 -10 8 -23 11 -28 3 -6 -6 -10 -22 -9
-53 2 -67 -14 -38 -43 12 -12 13 -18 4 -29 -9 -11 -9 -17 0 -28 16 -19 -1 -29
-37 -21 -16 3 -32 16 -39 31 -11 24 -10 26 7 21 37 -10 32 13 -7 29 l-38 16
24 19 c13 10 36 19 52 19 18 0 29 5 29 14 0 27 45 34 54 9z m846 8 c0 -5 12
-11 28 -14 15 -3 31 -15 37 -29 7 -17 18 -23 40 -23 17 -1 46 -11 65 -23 19
-12 42 -22 51 -22 15 0 66 -47 58 -54 -2 -2 -21 -1 -41 2 -29 3 -38 9 -38 23
0 12 -7 19 -18 19 -10 0 -27 7 -38 15 -23 17 -34 19 -34 5 0 -5 6 -10 14 -10
8 0 16 -7 20 -15 3 -8 12 -12 21 -9 20 8 19 -3 -1 -23 -15 -15 -14 -18 8 -34
32 -25 15 -24 -41 3 -64 31 -106 67 -106 92 0 12 -3 21 -7 21 -4 0 -14 9 -21
20 -11 14 -19 16 -28 9 -21 -14 -54 -11 -54 6 0 9 11 16 28 18 16 2 31 10 34
18 6 15 23 19 23 5z m-1065 -31 c-22 -24 -19 -28 20 -36 30 -5 35 -10 35 -33
0 -14 -4 -21 -8 -16 -7 10 -48 35 -57 35 -3 0 -5 -9 -5 -20 0 -17 -3 -19 -19
-8 -11 7 -19 17 -18 22 1 6 -9 10 -23 8 -22 -3 -21 1 19 36 24 22 50 38 58 35
12 -5 11 -8 -2 -23z m806 -3 c-10 -9 -11 -8 -5 6 3 10 9 15 12 12 3 -3 0 -11
-7 -18z m24 -70 c-16 -38 -29 -51 -19 -19 16 48 28 74 31 66 2 -6 -3 -27 -12
-47z m71 26 c-8 -8 -36 5 -36 17 0 7 6 7 21 0 11 -7 18 -14 15 -17z m44 1 c0
-8 -5 -12 -10 -9 -6 4 -8 11 -5 16 9 14 15 11 15 -7z m410 6 c0 -5 -13 -10
-30 -10 -16 0 -30 5 -30 10 0 6 14 10 30 10 17 0 30 -4 30 -10z m140 0 c0 -5
-2 -10 -4 -10 -3 0 -8 5 -11 10 -3 6 -1 10 4 10 6 0 11 -4 11 -10z m-1205 -22
c6 -20 8 -20 12 -5 6 24 33 21 33 -4 0 -29 -50 -23 -61 9 -5 12 -5 22 0 22 5
0 12 -10 16 -22z m-423 -8 c-12 -12 -22 -26 -22 -33 0 -8 -4 -7 -10 3 -11 17
14 50 38 50 12 0 10 -5 -6 -20z m1069 -1 c15 -7 24 -7 35 1 11 10 20 6 44 -20
16 -18 30 -27 30 -21 0 19 17 12 35 -15 13 -20 14 -28 5 -34 -9 -5 -9 -9 -1
-14 6 -4 11 -2 11 3 0 18 19 12 30 -9 8 -16 8 -28 -2 -50 -16 -37 -28 -38 -28
-4 0 19 -4 25 -15 20 -10 -4 -19 2 -23 15 -7 17 -10 18 -19 7 -8 -10 -6 -25 9
-59 25 -56 56 -70 151 -73 53 -1 72 -5 81 -18 15 -20 36 -24 36 -7 0 6 -9 22
-20 36 -25 32 -15 51 14 25 11 -11 27 -17 33 -15 7 3 31 -14 52 -36 22 -23 44
-41 50 -41 6 0 11 -4 11 -10 0 -5 -8 -6 -17 -3 -10 4 -1 -10 19 -30 20 -20 41
-51 46 -69 6 -18 13 -41 17 -51 5 -12 3 -16 -6 -13 -8 2 -27 7 -42 10 -26 6
-27 5 -17 -15 7 -11 9 -30 6 -42 -3 -13 2 -27 17 -40 l22 -19 -22 6 c-13 3
-32 9 -43 12 -23 6 -25 -2 -6 -36 13 -22 12 -27 -10 -47 -14 -13 -30 -23 -36
-23 -5 0 -8 -7 -5 -15 4 -8 2 -17 -3 -20 -6 -4 -10 -1 -10 5 0 7 -7 9 -16 6
-18 -7 -54 32 -47 50 6 17 -18 29 -28 13 -6 -11 -9 -10 -15 5 -4 9 -17 22 -30
27 -13 4 -24 15 -24 24 0 14 3 14 30 0 16 -8 36 -15 45 -15 8 0 15 -5 15 -11
0 -5 5 -7 11 -4 6 4 -13 28 -45 57 -31 28 -56 56 -56 63 0 7 -6 18 -14 24 -8
7 -14 28 -14 48 0 29 -8 43 -48 79 -46 43 -100 64 -124 49 -9 -5 -10 -1 -6 13
5 15 2 22 -14 27 -24 8 -54 50 -46 64 4 5 -8 21 -26 35 l-33 26 28 0 c34 0 35
12 2 30 -14 7 -25 17 -25 22 0 11 24 10 36 -1 25 -24 87 -52 96 -43 7 7 2 12
-11 17 -12 3 -21 12 -20 18 3 27 -2 37 -21 37 -13 0 -17 5 -14 14 4 9 -2 16
-17 18 -12 2 -24 9 -27 16 -5 15 3 15 29 1z m-1049 -49 c-35 -29 -40 -40 -16
-40 24 0 7 -18 -25 -25 -27 -6 -28 -8 -23 -51 3 -29 1 -44 -7 -44 -7 0 -9 9
-5 25 5 19 0 30 -17 45 l-24 20 30 22 c16 13 43 35 59 49 16 14 36 26 44 26
10 0 4 -10 -16 -27z m508 20 c0 -5 -4 -10 -10 -10 -5 0 -10 5 -10 10 0 6 5 10
10 10 6 0 10 -4 10 -10z m-619 -9 c-10 -7 -10 -10 -1 -16 8 -5 16 -1 22 9 12
22 28 20 28 -2 0 -23 -32 -37 -82 -37 -48 0 -50 15 -7 37 35 18 64 24 40 9z
m704 -31 c3 -5 22 -9 41 -8 21 1 39 -4 45 -13 14 -23 10 -32 -7 -15 -8 9 -28
16 -44 16 -16 0 -32 5 -35 10 -11 18 -35 11 -35 -10 0 -28 -17 -25 -22 4 -6
32 9 48 33 35 10 -5 21 -13 24 -19z m809 -59 c-9 -11 -21 13 -16 32 6 22 6 22
12 -3 4 -14 6 -27 4 -29z m-1611 19 c-7 -27 -23 -36 -34 -19 -5 9 -1 18 14 26
12 7 23 12 24 13 0 0 -1 -9 -4 -20z m431 5 c3 -8 1 -15 -4 -15 -6 0 -10 -9
-10 -19 0 -11 -3 -22 -7 -24 -5 -3 -8 12 -8 34 0 39 17 53 29 24z m170 6 c50
-12 63 -25 44 -45 -13 -13 -18 -13 -34 -2 -13 10 -25 11 -46 4 -38 -14 -58 -4
-56 27 3 28 23 32 92 16z m244 -30 c-5 -25 -55 -22 -60 4 -4 18 0 20 29 17 25
-3 33 -9 31 -21z m352 5 c0 -3 -4 -8 -10 -11 -5 -3 -10 -1 -10 4 0 6 5 11 10
11 6 0 10 -2 10 -4z m-769 -67 c-11 -4 -12 -8 -3 -13 13 -8 7 -26 -8 -26 -5 0
-14 10 -21 21 -8 16 -8 20 1 14 7 -4 16 5 23 25 11 30 12 30 18 8 3 -15 0 -25
-10 -29z m292 25 c4 -8 16 -14 26 -14 10 0 29 -10 42 -23 28 -26 34 -68 10
-65 -10 2 -15 -4 -15 -14 1 -10 -3 -18 -8 -18 -6 0 -8 -6 -5 -14 9 -23 -30
-26 -54 -3 -12 11 -31 22 -43 23 -32 4 -32 4 -17 13 22 14 -15 59 -60 71 -46
13 -50 20 -10 20 16 0 40 -11 56 -26 22 -20 27 -22 23 -7 -13 45 -13 48 5 45
20 -3 22 9 5 27 -11 11 -8 12 12 6 14 -4 29 -14 33 -21z m1147 6 c0 -5 -4 -10
-10 -10 -5 0 -10 5 -10 10 0 6 5 10 10 10 6 0 10 -4 10 -10z m-789 -25 c-1
-15 -24 -12 -29 3 -3 9 2 13 12 10 10 -1 17 -7 17 -13z m-164 -37 c-3 -8 -6
-5 -6 6 -1 11 2 17 5 13 3 -3 4 -12 1 -19z m563 12 c0 -5 -2 -10 -4 -10 -3 0
-8 5 -11 10 -3 6 -1 10 4 10 6 0 11 -4 11 -10z m-1306 -27 c-4 -16 -11 -32
-17 -38 -7 -7 -8 -4 -3 8 3 10 6 27 6 38 0 10 5 19 10 19 6 0 8 -11 4 -27z
m1329 12 c-3 -9 -8 -14 -10 -11 -3 3 -2 9 2 15 9 16 15 13 8 -4z m1518 -11 c7
-8 8 -24 4 -41 -5 -16 -9 -46 -10 -67 0 -22 -6 -41 -13 -44 -7 -2 -12 -11 -12
-20 0 -34 -14 -43 -44 -29 -27 12 -28 14 -23 76 3 37 0 75 -6 89 -10 21 -8 27
10 42 24 19 76 16 94 -6z m-2601 -26 c0 -4 -7 -8 -16 -8 -23 0 -55 20 -49 30
6 9 65 -10 65 -22z m200 7 c0 -8 -4 -15 -9 -15 -13 0 -22 16 -14 24 11 11 23
6 23 -9z m545 5 c3 -5 1 -10 -4 -10 -6 0 -11 5 -11 10 0 6 2 10 4 10 3 0 8 -4
11 -10z m-603 -23 c13 -12 37 -33 53 -45 20 -16 23 -22 11 -22 -9 0 -16 -7
-16 -15 0 -8 -9 -15 -19 -15 -11 0 -26 7 -35 15 -8 8 -22 15 -31 15 -9 0 -15
6 -12 13 2 6 -3 20 -12 30 -15 17 -14 20 4 33 25 18 28 18 57 -9z m-336 -23
c-5 -13 -9 -14 -21 -4 -13 11 -13 14 2 26 20 14 29 3 19 -22z m-216 -8 c0 -25
-5 -35 -20 -39 -18 -5 -19 -4 -5 16 8 12 15 29 15 39 0 10 2 18 5 18 3 0 5
-15 5 -34z m790 -91 c0 -8 -2 -15 -4 -15 -2 0 -6 7 -10 15 -3 8 -1 15 4 15 6
0 10 -7 10 -15z m-283 -47 c-3 -8 -6 -5 -6 6 -1 11 2 17 5 13 3 -3 4 -12 1
-19z m-530 -20 c-2 -20 2 -23 28 -21 30 3 30 3 5 -8 -14 -6 -32 -15 -41 -19
-11 -6 -18 -1 -26 20 -9 23 -8 27 3 23 8 -3 14 1 14 11 0 9 4 16 10 16 5 0 9
-10 7 -22z m920 -10 c-3 -8 -6 -5 -6 6 -1 11 2 17 5 13 3 -3 4 -12 1 -19z
m393 -12 c0 -3 -4 -8 -10 -11 -5 -3 -10 -1 -10 4 0 6 5 11 10 11 6 0 10 -2 10
-4z m-1366 -71 c-4 -8 -8 -15 -10 -15 -2 0 -4 7 -4 15 0 8 4 15 10 15 5 0 7
-7 4 -15z m2241 -25 c3 -5 -1 -10 -10 -10 -9 0 -13 5 -10 10 3 6 8 10 10 10 2
0 7 -4 10 -10z m-1525 -5 c0 -2 -10 -9 -22 -15 -22 -11 -22 -10 -4 4 21 17 26
19 26 11z m37 -17 c-3 -8 -6 -5 -6 6 -1 11 2 17 5 13 3 -3 4 -12 1 -19z m1460
-75 c-3 -10 -5 -2 -5 17 0 19 2 27 5 18 2 -10 2 -26 0 -35z m-1440 15 c-3 -8
-6 -5 -6 6 -1 11 2 17 5 13 3 -3 4 -12 1 -19z m-27 -17 c0 -5 -7 -12 -16 -15
-14 -5 -15 -4 -4 9 14 17 20 19 20 6z m430 -50 c0 -22 -4 -43 -10 -46 -5 -3
-10 3 -10 14 0 11 -4 23 -10 26 -6 4 -5 13 3 25 18 30 27 24 27 -19z m47 -1
c3 -8 6 -31 8 -50 2 -19 6 -45 8 -57 7 -28 5 -28 -19 -1 -10 12 -13 18 -5 13
11 -6 13 -3 7 16 -9 31 -18 129 -10 109 3 -8 8 -22 11 -30z m979 5 c17 -42 8
-69 -12 -34 -13 24 -19 69 -8 69 3 0 12 -16 20 -35z m-1292 16 c3 -5 -1 -11
-9 -15 -15 -6 -29 7 -18 18 9 9 21 8 27 -3z m2070 -81 c7 -46 6 -56 -10 -67
-12 -9 -20 -10 -24 -3 -7 11 -24 -3 -32 -25 -1 -5 -7 -9 -11 -7 -5 1 -16 -7
-26 -19 -17 -21 -17 -21 -36 20 -17 39 -17 42 -1 60 22 24 76 33 83 14 8 -20
33 -16 33 6 0 11 -4 31 -9 44 -6 14 -7 28 -3 31 15 15 28 -5 36 -54z m-2157
28 c-3 -8 -6 -5 -6 6 -1 11 2 17 5 13 3 -3 4 -12 1 -19z m910 -10 c-3 -8 -6
-5 -6 6 -1 11 2 17 5 13 3 -3 4 -12 1 -19z m710 0 c-3 -8 -6 -5 -6 6 -1 11 2
17 5 13 3 -3 4 -12 1 -19z m480 0 c-3 -8 -6 -5 -6 6 -1 11 2 17 5 13 3 -3 4
-12 1 -19z m-2683 -1 c-5 -14 -44 -41 -50 -34 -6 5 35 47 46 47 5 0 7 -6 4
-13z m1104 -45 c7 -2 10 2 6 12 -8 22 12 20 21 -1 4 -10 9 -40 12 -67 4 -44 3
-48 -11 -36 -15 11 -23 24 -57 87 -6 12 -8 30 -4 40 7 16 8 15 14 -6 4 -14 12
-26 19 -29z m362 17 c0 -5 -7 -9 -15 -9 -8 0 -15 7 -15 15 0 9 6 12 15 9 8 -4
15 -10 15 -15z m489 -23 c-1 -21 -3 -24 -6 -11 -3 11 -9 24 -14 30 -14 14 -11
25 6 19 9 -4 15 -18 14 -38z m-2543 -3 c-11 -11 -19 6 -11 24 8 17 8 17 12 0
3 -10 2 -21 -1 -24z m643 10 c-10 -11 -14 -11 -20 -1 -10 17 -2 28 17 21 11
-4 12 -8 3 -20z m466 17 c3 -5 1 -10 -4 -10 -6 0 -11 5 -11 10 0 6 2 10 4 10
3 0 8 -4 11 -10z m420 -47 c-21 -20 -25 -16 -25 25 l0 37 19 -24 c16 -20 17
-27 6 -38z m1152 25 c-3 -8 -6 -5 -6 6 -1 11 2 17 5 13 3 -3 4 -12 1 -19z
m-2327 2 c0 -5 -9 -10 -20 -10 -11 0 -20 5 -20 10 0 6 9 10 20 10 11 0 20 -4
20 -10z m504 -15 c-4 -8 -12 -15 -20 -15 -8 0 -11 6 -8 15 4 8 12 15 20 15 8
0 11 -6 8 -15z m291 6 c3 -5 -4 -12 -15 -16 -11 -3 -34 -18 -52 -33 -21 -18
-33 -23 -36 -14 -2 6 -15 12 -29 12 -13 0 -31 6 -38 14 -12 11 -8 15 23 24 20
6 48 10 62 9 14 -2 34 0 45 4 27 11 33 10 40 0z m-465 -16 c-7 -8 -19 -15 -27
-15 -13 0 -13 3 -3 15 7 8 19 15 27 15 13 0 13 -3 3 -15z m254 -5 c-10 -4 -26
-5 -34 -2 -11 4 -8 8 10 12 31 8 51 -1 24 -10z m1176 11 c0 -5 -9 -7 -20 -4
-11 3 -20 7 -20 9 0 2 9 4 20 4 11 0 20 -4 20 -9z m-1997 -68 c4 -5 0 -19 -7
-29 -13 -17 -15 -16 -21 18 -4 20 -3 47 1 60 7 22 8 22 14 -8 4 -17 10 -35 13
-41z m1465 10 c11 -9 12 -13 3 -13 -9 0 -11 -9 -7 -27 5 -28 5 -28 -9 2 -8 17
-14 44 -13 60 0 20 2 23 5 10 3 -11 12 -26 21 -32z m-1518 25 c0 -7 -5 -20
-10 -28 -8 -12 -10 -9 -10 13 0 15 5 27 10 27 6 0 10 -6 10 -12z m545 2 c3 -5
1 -10 -4 -10 -6 0 -11 5 -11 10 0 6 2 10 4 10 3 0 8 -4 11 -10z m1063 -2 c7
-7 12 -16 12 -20 0 -15 -15 -8 -28 12 -13 22 -3 27 16 8z m-1156 -30 c-15 -15
-26 -4 -18 18 5 13 9 15 18 6 9 -9 9 -15 0 -24z m1308 7 c0 -8 -2 -15 -4 -15
-2 0 -6 7 -10 15 -3 8 -1 15 4 15 6 0 10 -7 10 -15z m-777 -20 c1 -5 -10 -11
-25 -13 -16 -2 -28 1 -28 7 0 20 49 26 53 6z m1347 8 c0 -5 -5 -15 -10 -23 -8
-12 -10 -11 -10 8 0 12 5 22 10 22 6 0 10 -3 10 -7z m167 -45 c-2 -13 -4 -5
-4 17 -1 22 1 32 4 23 2 -10 2 -28 0 -40z m-1747 22 c0 -5 -5 -10 -11 -10 -5
0 -7 5 -4 10 3 6 8 10 11 10 2 0 4 -4 4 -10z m150 0 c0 -5 -7 -10 -16 -10 -8
0 -12 5 -9 10 3 6 10 10 16 10 5 0 9 -4 9 -10z m-860 -71 c0 -6 -4 -7 -10 -4
-5 3 -10 11 -10 16 0 6 5 7 10 4 6 -3 10 -11 10 -16z m-179 -68 c-9 -6 -10
-11 -2 -15 20 -12 13 -35 -9 -29 -11 3 -20 12 -20 21 0 15 31 44 40 36 2 -3
-2 -9 -9 -13z m3945 -107 c15 -11 34 -23 43 -29 9 -5 19 -14 23 -19 7 -11 -1
-77 -12 -89 -4 -4 -3 -27 1 -50 17 -85 13 -96 -35 -118 -67 -29 -102 -34 -121
-15 -9 8 -23 20 -32 24 -10 6 -15 22 -15 43 1 19 1 53 1 77 0 23 5 42 11 42
17 0 11 21 -15 56 -14 18 -25 44 -25 58 0 22 5 26 29 26 17 0 32 4 35 9 9 14
84 5 112 -15z m-4075 -268 c-11 -27 -24 -37 -16 -11 3 8 7 22 10 31 3 9 8 15
11 12 2 -3 0 -17 -5 -32z m54 -38 c-2 -90 -3 -91 -16 -83 -16 11 -3 155 15
155 2 0 2 -33 1 -72z m3115 -1020 c0 -26 -23 -18 -25 9 -1 14 3 19 12 16 7 -3
13 -14 13 -25z m10 -468 c0 -5 -4 -10 -10 -10 -5 0 -10 5 -10 10 0 6 5 10 10
10 6 0 10 -4 10 -10z m-303 -892 c-3 -7 -5 -2 -5 12 0 14 2 19 5 13 2 -7 2
-19 0 -25z m-337 -529 c-7 -11 -14 -18 -17 -15 -3 3 0 12 7 21 18 21 23 19 10
-6z m-1700 -471 c0 -18 -2 -20 -9 -8 -6 8 -7 18 -5 22 9 14 14 9 14 -14z m0
-41 c12 -4 11 -6 -2 -6 -10 -1 -18 -9 -19 -18 0 -15 -2 -15 -9 2 -5 11 -9 29
-9 39 -1 18 0 18 12 4 6 -9 19 -18 27 -21z m1370 -88 c0 -10 -4 -19 -10 -19
-5 0 -10 12 -10 26 0 14 4 23 10 19 6 -3 10 -15 10 -26z m57 -21 c-3 -8 -6 -5
-6 6 -1 11 2 17 5 13 3 -3 4 -12 1 -19z m-1273 -114 c9 -24 8 -25 -13 -12 -11
7 -17 16 -15 20 8 13 21 9 28 -8z m186 12 c0 -3 -4 -8 -10 -11 -5 -3 -10 -1
-10 4 0 6 5 11 10 11 6 0 10 -2 10 -4z m764 -12 c20 -8 21 -40 2 -47 -19 -7
-26 1 -26 30 0 25 1 26 24 17z m-663 -91 c-12 -20 -14 -14 -5 12 4 9 9 14 11
11 3 -2 0 -13 -6 -23z m34 -93 c3 -5 -1 -10 -9 -10 -9 0 -16 5 -16 10 0 6 4
10 9 10 6 0 13 -4 16 -10z m415 -110 c0 -5 -5 -10 -11 -10 -5 0 -7 5 -4 10 3
6 8 10 11 10 2 0 4 -4 4 -10z m1760 -80 c0 -5 -4 -10 -10 -10 -5 0 -10 5 -10
10 0 6 5 10 10 10 6 0 10 -4 10 -10z m300 -350 c0 -5 -4 -10 -10 -10 -5 0 -10
5 -10 10 0 6 5 10 10 10 6 0 10 -4 10 -10z"/>
<path d="M4410 6558 c0 -18 18 -34 28 -24 3 4 -2 14 -11 23 -16 16 -17 16 -17
1z"/>
<path d="M4686 6535 c4 -8 8 -15 10 -15 2 0 4 7 4 15 0 8 -4 15 -10 15 -5 0
-7 -7 -4 -15z"/>
<path d="M4700 6500 c0 -5 -7 -7 -16 -3 -14 5 -15 3 -5 -16 7 -12 16 -19 22
-16 5 4 9 0 9 -8 0 -7 11 -23 25 -35 14 -12 25 -26 25 -32 0 -13 43 -80 52
-80 12 0 14 34 4 55 -5 11 -12 27 -16 35 -4 8 -16 19 -28 25 -12 5 -24 16 -27
23 -2 7 0 10 5 7 15 -9 12 8 -6 33 -15 22 -44 30 -44 12z"/>
<path d="M4510 6386 c0 -8 5 -18 10 -21 6 -3 10 3 10 14 0 12 -4 21 -10 21 -5
0 -10 -6 -10 -14z"/>
<path d="M4500 6341 c0 -13 29 -35 37 -28 7 8 -15 37 -28 37 -5 0 -9 -4 -9 -9z"/>
<path d="M4490 6266 c0 -9 5 -16 10 -16 6 0 10 4 10 9 0 6 -4 13 -10 16 -5 3
-10 -1 -10 -9z"/>
<path d="M4855 6231 c-3 -5 0 -13 7 -17 6 -4 14 -2 16 4 2 7 9 9 14 6 7 -4 8
-2 4 4 -9 14 -33 16 -41 3z"/>
<path d="M4600 6192 c0 -12 19 -26 26 -19 2 2 -2 10 -11 17 -9 8 -15 8 -15 2z"/>
<path d="M3852 6649 c2 -6 8 -10 13 -10 5 0 11 4 13 10 2 6 -4 11 -13 11 -9 0
-15 -5 -13 -11z"/>
<path d="M3890 6610 c0 -5 5 -10 10 -10 6 0 10 5 10 10 0 6 -4 10 -10 10 -5 0
-10 -4 -10 -10z"/>
<path d="M4204 6504 c5 -12 1 -14 -17 -9 -22 6 -22 6 -2 -10 44 -36 77 -41 43
-7 -9 9 -8 12 4 12 9 0 32 -18 51 -40 38 -44 47 -49 47 -22 0 17 -35 50 -85
79 -29 17 -48 16 -41 -3z"/>
<path d="M4045 6497 c-14 -7 -10 -15 26 -48 43 -40 76 -52 65 -24 -8 23 26 19
47 -6 10 -11 21 -19 23 -16 9 9 -8 57 -21 57 -7 0 -19 10 -27 22 -11 16 -25
22 -56 23 -23 1 -49 -3 -57 -8z"/>
<path d="M4075 6380 c-10 -16 4 -30 31 -30 l24 0 -20 20 c-23 23 -26 24 -35
10z"/>
<path d="M4197 6379 c7 -7 15 -10 18 -7 3 3 -2 9 -12 12 -14 6 -15 5 -6 -5z"/>
<path d="M4220 6341 c0 -5 7 -11 14 -14 10 -4 13 -1 9 9 -6 15 -23 19 -23 5z"/>
<path d="M4260 6300 c0 -5 5 -10 11 -10 5 0 7 5 4 10 -3 6 -8 10 -11 10 -2 0
-4 -4 -4 -10z"/>
<path d="M4206 6182 c-3 -6 -2 -13 4 -17 15 -9 12 -27 -2 -20 -7 4 -4 0 6 -9
18 -15 36 -13 36 3 0 18 -37 54 -44 43z"/>
<path d="M3494 6859 c-8 -14 14 -29 45 -29 l25 0 -22 20 c-24 23 -38 25 -48 9z"/>
<path d="M2471 6644 c0 -11 3 -14 6 -6 3 7 2 16 -1 19 -3 4 -6 -2 -5 -13z"/>
<path d="M3650 6540 c0 -5 5 -10 10 -10 6 0 10 5 10 10 0 6 -4 10 -10 10 -5 0
-10 -4 -10 -10z"/>
<path d="M2246 6471 c-3 -4 -24 -11 -46 -15 -26 -4 -45 -14 -55 -29 -22 -34
-54 -138 -47 -155 4 -12 0 -14 -21 -8 -28 7 -47 -14 -47 -52 0 -11 -9 -22 -19
-25 -23 -6 -43 -69 -34 -105 3 -14 1 -27 -6 -31 -9 -6 -9 -15 -1 -35 12 -34
13 -57 1 -38 -6 10 -9 8 -13 -10 -6 -33 1 -55 13 -37 7 12 9 11 9 -1 0 -8 6
-4 13 10 7 13 23 27 37 31 14 4 19 7 13 8 -7 1 -13 8 -13 17 0 8 5 12 10 9 6
-3 10 0 10 8 0 8 7 20 15 27 8 7 15 19 15 26 0 8 -7 14 -15 14 -15 0 -16 4
-18 50 -1 33 13 80 24 80 5 0 6 7 3 15 -5 11 -2 13 10 9 18 -7 20 -18 7 -42
-6 -11 -4 -21 4 -29 11 -10 15 -5 20 28 4 24 3 45 -4 53 -8 10 -7 17 5 27 14
11 18 11 29 -4 12 -16 13 -16 19 -1 4 10 2 22 -3 27 -7 7 4 25 29 55 22 25 41
52 42 61 0 9 4 -4 8 -29 l6 -45 8 63 c5 34 13 62 18 62 5 0 6 5 3 10 -8 12
-22 13 -29 1z m-42 -73 c-5 -27 -10 -35 -21 -31 -8 3 -10 9 -5 12 5 3 12 19
16 35 10 39 17 28 10 -16z m-194 -278 c0 -5 -4 -10 -10 -10 -5 0 -10 5 -10 10
0 6 5 10 10 10 6 0 10 -4 10 -10z m1 -97 c-8 -15 -10 -15 -11 -2 0 17 10 32
18 25 2 -3 -1 -13 -7 -23z"/>
<path d="M2355 6450 c-3 -5 -1 -10 4 -10 6 0 11 5 11 10 0 6 -2 10 -4 10 -3 0
-8 -4 -11 -10z"/>
<path d="M3712 6270 c0 -14 2 -19 5 -12 2 6 2 18 0 25 -3 6 -5 1 -5 -13z"/>
<path d="M3730 6251 c0 -5 5 -13 10 -16 6 -3 10 -2 10 4 0 5 -4 13 -10 16 -5
3 -10 2 -10 -4z"/>
<path d="M3927 6246 c-3 -8 1 -20 9 -26 8 -7 14 -19 14 -27 0 -8 4 -12 9 -8 6
3 6 17 -1 35 -12 36 -24 45 -31 26z"/>
<path d="M3870 6241 c0 -6 5 -13 10 -16 6 -3 10 1 10 9 0 9 -4 16 -10 16 -5 0
-10 -4 -10 -9z"/>
<path d="M2936 6225 c-3 -8 -1 -15 4 -15 6 0 10 7 10 15 0 8 -2 15 -4 15 -2 0
-6 -7 -10 -15z"/>
<path d="M3688 6229 c6 -7 12 -21 12 -31 0 -10 4 -18 9 -18 15 0 -3 53 -20 58
-11 4 -12 2 -1 -9z"/>
<path d="M2228 6185 c-2 -25 0 -45 4 -45 5 0 8 20 8 45 0 25 -2 45 -4 45 -2 0
-6 -20 -8 -45z"/>
<path d="M3522 6200 c0 -14 2 -19 5 -12 2 6 2 18 0 25 -3 6 -5 1 -5 -13z"/>
<path d="M2938 6175 c-3 -14 -2 -25 2 -25 11 0 20 39 10 45 -4 3 -10 -6 -12
-20z"/>
<path d="M2970 6168 l0 -33 20 25 c13 18 15 27 7 32 -21 14 -27 8 -27 -24z"/>
<path d="M3760 6156 c0 -9 5 -16 10 -16 6 0 10 4 10 9 0 6 -4 13 -10 16 -5 3
-10 -1 -10 -9z"/>
<path d="M2065 6140 c-3 -5 -1 -10 4 -10 6 0 11 5 11 10 0 6 -2 10 -4 10 -3 0
-8 -4 -11 -10z"/>
<path d="M2362 6126 c1 -10 8 -17 13 -17 15 1 12 24 -3 29 -9 3 -13 -2 -10
-12z"/>
<path d="M3103 6115 c-6 -14 -8 -25 -4 -25 4 0 13 11 19 25 6 14 8 25 4 25 -4
0 -12 -11 -19 -25z"/>
<path d="M2980 6110 c-8 -5 -11 -12 -7 -16 4 -4 13 -2 19 4 15 15 7 24 -12 12z"/>
<path d="M3950 6056 c0 -2 7 -9 15 -16 9 -7 15 -8 15 -2 0 5 -7 12 -15 16 -8
3 -15 4 -15 2z"/>
<path d="M1920 5979 c0 -5 5 -7 10 -4 6 3 10 8 10 11 0 2 -4 4 -10 4 -5 0 -10
-5 -10 -11z"/>
<path d="M3910 5981 c0 -6 4 -13 10 -16 6 -3 7 1 4 9 -7 18 -14 21 -14 7z"/>
<path d="M1879 5938 c-15 -38 -19 -68 -7 -68 9 0 38 65 38 86 0 25 -17 15 -31
-18z"/>
<path d="M1927 5823 c-2 -5 -3 -17 -3 -28 1 -31 31 -24 34 8 2 19 -1 27 -12
27 -8 0 -17 -3 -19 -7z"/>
<path d="M3785 5800 c3 -5 12 -7 20 -3 21 7 19 13 -6 13 -11 0 -18 -4 -14 -10z"/>
<path d="M3815 5760 c3 -5 8 -10 11 -10 2 0 4 5 4 10 0 6 -5 10 -11 10 -5 0
-7 -4 -4 -10z"/>
<path d="M1930 5741 c0 -5 5 -13 10 -16 6 -3 10 -2 10 4 0 5 -4 13 -10 16 -5
3 -10 2 -10 -4z"/>
<path d="M2200 5707 c0 -28 3 -35 15 -31 19 8 19 23 0 48 -14 19 -15 18 -15
-17z"/>
<path d="M4570 4703 c0 -5 4 -13 8 -20 9 -15 193 -106 199 -99 3 3 -5 19 -18
37 -32 46 -190 114 -189 82z"/>
<path d="M4000 4660 c-13 -8 -13 -10 2 -10 9 0 20 5 23 10 8 13 -5 13 -25 0z"/>
<path d="M4332 4647 c-20 -5 -56 -7 -79 -5 -24 2 -43 0 -43 -4 0 -4 -9 -10
-20 -13 -16 -5 -19 -12 -14 -33 4 -15 13 -32 20 -38 20 -16 17 -24 -6 -24 -23
0 -27 -15 -5 -24 8 -3 15 -12 15 -20 0 -10 7 -12 22 -8 17 4 20 2 15 -13 -4
-9 -2 -24 5 -33 10 -12 10 -16 1 -19 -21 -7 -14 -26 7 -20 23 6 39 -12 20 -23
-7 -4 -20 -5 -30 -3 -13 4 -19 -2 -22 -18 -2 -16 -14 -26 -45 -36 -23 -8 -48
-25 -57 -37 -13 -21 -13 -25 2 -42 9 -11 18 -36 19 -56 1 -31 -2 -37 -20 -40
-18 -2 -21 -9 -19 -35 2 -17 -2 -34 -9 -38 -8 -5 -9 -1 -5 13 8 25 -29 51 -47
33 -7 -7 -15 -7 -25 1 -10 9 -18 9 -34 -1 -17 -10 -20 -9 -25 8 -6 23 -18 27
-28 11 -13 -20 -68 -10 -98 18 l-29 27 2 -25 c4 -48 1 -55 -14 -35 -12 17 -13
15 -13 -22 0 -43 11 -53 65 -53 15 0 22 -6 22 -20 0 -16 7 -20 33 -20 40 0 57
-15 57 -51 0 -35 -52 -58 -77 -34 -16 16 -49 20 -57 7 -3 -5 10 -40 29 -79 38
-77 125 -169 185 -195 102 -45 141 -56 230 -64 63 -6 222 13 256 31 16 8 37
15 48 15 12 0 16 5 12 16 -3 9 -6 18 -6 20 0 2 -9 4 -21 4 -32 0 -20 34 14 38
25 3 41 32 17 32 -5 0 -10 11 -10 25 0 30 -16 33 -23 4 l-6 -20 -20 20 c-12
12 -28 21 -36 21 -8 0 -15 6 -15 13 -1 6 -7 1 -14 -12 -13 -24 -14 -24 -18 17
-3 32 0 41 9 38 15 -6 17 3 5 22 -5 7 -16 10 -25 6 -25 -9 -20 11 6 23 55 27
74 24 56 -9 -6 -11 -8 -22 -5 -25 9 -10 36 18 36 38 0 12 7 19 20 19 23 0 26
-10 8 -28 -9 -9 -7 -12 10 -12 15 0 20 4 15 16 -7 18 12 34 41 34 19 0 18 -1
-3 -21 -22 -21 -24 -40 -4 -46 7 -3 9 4 6 16 -3 12 -1 21 6 21 6 0 11 -5 11
-10 0 -7 7 -7 21 1 15 8 24 8 32 0 8 -8 7 -11 -3 -11 -10 0 -9 -5 4 -19 11
-12 25 -16 41 -13 37 7 39 19 5 27 -39 9 -39 23 1 17 24 -4 31 0 36 17 7 27
23 27 30 1 15 -57 35 7 59 185 13 99 13 134 4 200 -13 87 -59 206 -93 243 -25
27 -72 54 -80 46 -3 -3 -16 4 -28 15 -13 12 -29 19 -35 17 -6 -2 -24 2 -40 10
-15 8 -34 12 -42 9 -8 -3 -20 -1 -26 4 -15 13 -138 18 -184 8z m-148 -412 c-4
-8 -14 -15 -23 -15 -14 1 -13 3 3 15 25 19 27 19 20 0z m138 -9 c10 -7 21 -27
24 -45 7 -36 11 -37 44 -14 17 12 25 13 28 5 8 -24 41 -13 45 16 2 15 4 3 3
-25 0 -42 -4 -53 -17 -53 -9 0 -22 -7 -29 -15 -12 -14 -15 -14 -31 1 -26 23
-24 32 9 37 21 3 18 4 -12 6 -43 1 -65 -18 -66 -56 0 -27 -21 -30 -42 -5 -13
14 -14 24 -3 65 7 26 10 59 7 72 -5 28 12 33 40 11z m251 -23 c9 -3 17 -13 17
-23 0 -44 -72 -55 -78 -12 -5 36 5 55 26 47 9 -4 25 -10 35 -12z m166 -25 c0
-18 -3 -27 -6 -20 -2 6 -17 12 -31 12 l-27 1 24 19 c33 28 41 25 40 -12z
m-279 -88 c0 -5 -4 -10 -10 -10 -5 0 -10 5 -10 10 0 6 5 10 10 10 6 0 10 -4
10 -10z m-556 -26 c16 -16 13 -34 -6 -34 -5 0 -8 7 -4 15 3 9 0 15 -10 15 -8
0 -12 5 -9 10 8 13 11 13 29 -6z m823 1 c-2 -5 -16 -10 -31 -10 -16 -1 -32 -9
-37 -18 -12 -21 -29 -22 -29 -3 0 26 30 46 66 43 19 -1 32 -6 31 -12z m-677
-4 c0 -12 -21 -27 -47 -34 -17 -4 -23 -1 -23 12 0 10 3 21 7 24 10 10 63 8 63
-2z m300 -11 c0 -5 -4 -10 -10 -10 -5 0 -10 5 -10 10 0 6 5 10 10 10 6 0 10
-4 10 -10z m-352 -80 c-11 -17 -13 -18 -21 -4 -6 11 -5 19 4 25 20 12 30 0 17
-21z"/>
<path d="M2759 4617 c12 -15 11 -17 -4 -17 -40 0 -3 -12 62 -21 70 -9 133 -3
133 12 0 27 -136 51 -151 27 -7 -11 -13 -10 -31 1 -21 13 -22 13 -9 -2z"/>
<path d="M2670 4605 c-11 -13 -8 -15 19 -15 21 0 31 5 31 15 0 8 -8 15 -19 15
-10 0 -24 -7 -31 -15z"/>
<path d="M3010 4537 c0 -2 21 -21 46 -42 42 -35 47 -36 62 -21 15 14 14 17 -4
35 -18 17 -104 40 -104 28z"/>
<path d="M2822 4515 c4 -4 3 -16 -3 -27 -8 -15 -7 -23 8 -34 17 -12 17 -13 1
-14 -22 0 -24 -20 -2 -20 9 0 18 -9 21 -20 3 -11 9 -20 13 -20 13 0 18 -50 6
-57 -6 -4 -1 -9 12 -13 28 -6 25 -25 -3 -25 -17 0 -20 -5 -17 -31 3 -26 0 -33
-26 -43 -34 -14 -48 -51 -32 -81 7 -14 7 -20 0 -20 -5 0 -10 -8 -10 -17 0 -9
3 -13 7 -10 12 13 33 -16 33 -47 0 -45 -30 -67 -102 -75 -5 -1 -8 -8 -8 -16 0
-8 -4 -15 -9 -15 -6 0 -13 -19 -16 -43 -5 -34 -11 -43 -27 -44 -12 -1 -24 -6
-27 -11 -10 -15 -63 -25 -133 -25 -50 0 -68 -3 -72 -14 -9 -21 3 -36 18 -24
16 13 53 3 60 -16 4 -11 2 -13 -9 -9 -8 3 -15 1 -15 -5 0 -6 -5 -7 -11 -3 -8
5 -10 -6 -7 -35 2 -22 1 -41 -2 -41 -3 0 -6 -12 -6 -26 -1 -14 1 -23 4 -20 3
3 11 1 19 -5 10 -9 10 -15 2 -25 -6 -8 -9 -21 -5 -29 3 -9 2 -13 -4 -10 -6 3
-10 13 -10 21 0 8 -4 12 -10 9 -25 -16 -9 -44 35 -60 24 -10 43 -21 40 -25 -2
-3 53 -5 123 -4 125 2 189 16 232 49 8 6 33 20 55 30 63 31 150 128 165 183 7
26 21 63 31 82 38 76 49 143 29 181 -7 13 -7 19 0 19 5 0 10 5 10 10 0 6 -7
10 -15 10 -16 0 -31 43 -20 59 3 6 17 11 31 11 29 0 29 4 6 100 -39 164 -151
265 -327 296 -22 3 -37 3 -33 -1z m158 -415 c0 -16 7 -19 43 -18 71 2 82 -4
85 -47 4 -43 -12 -69 -23 -36 -8 27 -23 27 -27 -1 -2 -12 -8 -23 -15 -25 -7
-3 -10 3 -7 15 3 10 -2 24 -10 31 -9 8 -16 20 -16 27 0 8 -9 14 -20 14 -11 0
-20 -4 -20 -10 0 -5 -4 -10 -10 -10 -6 0 -6 10 1 27 5 14 8 32 5 40 -3 7 -1
13 4 13 6 0 10 -9 10 -20z m25 -130 c3 -5 -1 -10 -9 -10 -9 0 -16 5 -16 10 0
6 4 10 9 10 6 0 13 -4 16 -10z m-495 -291 c0 -5 -7 -9 -15 -9 -8 0 -15 7 -15
15 0 9 6 12 15 9 8 -4 15 -10 15 -15z"/>
<path d="M3733 4502 c-35 -27 -45 -65 -28 -109 10 -29 14 -33 14 -15 1 13 15
47 31 77 17 30 30 56 30 59 0 12 -26 5 -47 -12z"/>
<path d="M2075 4230 c-3 -5 -1 -10 4 -10 6 0 11 5 11 10 0 6 -2 10 -4 10 -3 0
-8 -4 -11 -10z"/>
<path d="M2300 4189 c0 -5 5 -7 10 -4 6 3 10 8 10 11 0 2 -4 4 -10 4 -5 0 -10
-5 -10 -11z"/>
<path d="M1777 4082 c-19 -21 -22 -32 -7 -32 10 0 50 36 50 45 0 12 -28 3 -43
-13z"/>
<path d="M2440 4051 c0 -10 7 -18 15 -18 8 0 15 6 15 13 0 6 -7 14 -15 18 -10
3 -15 -1 -15 -13z"/>
<path d="M2583 4033 c3 -12 -1 -30 -9 -40 -18 -24 -17 -33 1 -33 8 0 15 -7 15
-15 0 -8 5 -15 10 -15 6 0 10 11 10 24 0 29 3 32 54 42 34 6 38 5 33 -10 -10
-26 7 -18 20 9 6 14 7 23 3 20 -5 -3 -11 -1 -15 5 -3 5 -17 7 -31 4 -13 -3
-24 -2 -24 4 0 5 -12 8 -27 6 -15 -1 -31 3 -36 9 -6 8 -7 4 -4 -10z"/>
<path d="M2740 4034 c0 -9 5 -14 12 -12 18 6 21 28 4 28 -9 0 -16 -7 -16 -16z"/>
<path d="M2508 4029 c-26 -15 -22 -39 6 -39 26 0 51 24 41 40 -8 13 -25 12
-47 -1z"/>
<path d="M3800 4010 c-12 -8 -9 -10 13 -10 15 0 27 5 27 10 0 13 -20 13 -40 0z"/>
<path d="M0 2720 c0 -969 2 -1120 14 -1120 8 0 17 4 21 9 7 13 45 10 45 -3 0
-6 5 -5 12 2 7 7 20 12 29 12 9 0 22 7 29 15 16 19 48 19 94 0 43 -18 70 -8
80 28 3 13 8 158 11 322 6 341 -2 440 -52 635 -8 30 -16 69 -19 85 -2 17 -9
47 -16 67 -12 41 -6 298 12 453 21 188 11 380 -22 419 -4 6 -17 23 -28 38 -21
27 -103 88 -120 88 -4 0 -19 13 -32 28 -13 15 -31 31 -41 35 -16 6 -17 -56
-17 -1113z"/>
<path d="M4698 3824 c-10 -15 39 -54 50 -40 26 34 25 39 -6 34 -17 -2 -33 0
-35 6 -2 6 -6 6 -9 0z"/>
<path d="M4527 3814 c-4 -4 -7 -14 -7 -23 0 -11 3 -12 11 -4 6 6 10 16 7 23
-2 6 -7 8 -11 4z"/>
<path d="M4560 3810 c-11 -7 -11 -10 -2 -10 7 0 17 -10 22 -22 8 -21 9 -21 9
-3 1 30 -12 46 -29 35z"/>
<path d="M4620 3785 c-6 -8 -9 -19 -5 -25 4 -6 1 -18 -6 -26 -6 -8 -10 -16 -8
-18 4 -4 64 -9 87 -7 15 1 16 31 0 31 -6 0 -8 3 -5 7 7 7 -31 53 -44 53 -3 0
-12 -7 -19 -15z"/>
<path d="M3910 3673 c19 -23 41 -42 48 -42 8 -1 10 -6 6 -13 -4 -7 -4 -10 1
-6 4 4 16 3 26 -3 13 -7 19 -6 19 1 0 6 -8 14 -17 17 -9 4 -24 13 -32 20 -9 8
-32 26 -51 41 l-35 27 35 -42z"/>
<path d="M6643 3550 c-47 -21 -65 -48 -61 -88 1 -15 -1 -51 -6 -80 -7 -44 -5
-59 13 -92 25 -48 26 -69 6 -96 -28 -37 -19 -85 26 -139 41 -50 41 -50 37
-117 -7 -86 -21 -99 -146 -129 -52 -12 -96 -28 -99 -36 -3 -7 -14 -13 -24 -13
-10 0 -25 -13 -33 -29 -26 -49 -33 -48 -166 25 l-44 24 -12 -23 c-8 -14 -9
-37 -5 -63 5 -28 4 -47 -5 -58 -10 -14 -9 -25 7 -61 14 -31 18 -61 17 -105 -2
-33 2 -64 7 -68 6 -4 17 -20 25 -37 8 -16 21 -34 28 -38 7 -5 10 -12 7 -17 -3
-5 4 -11 15 -15 11 -3 25 -15 30 -26 6 -10 18 -19 26 -19 8 0 40 -11 69 -25
30 -13 67 -27 82 -31 71 -16 137 -47 168 -79 20 -21 42 -35 57 -35 13 0 34 -9
47 -21 24 -22 51 -19 51 6 0 9 7 27 16 40 9 13 13 29 9 35 -4 6 -2 16 3 23 5
7 15 36 21 66 6 30 20 70 31 90 13 25 21 64 24 126 8 131 7 139 -10 180 -22
53 -42 176 -43 267 -1 77 21 145 53 166 14 9 38 61 32 71 -2 3 2 38 10 76 8
39 16 79 17 90 2 11 6 30 10 42 5 14 2 33 -7 51 -8 16 -13 32 -11 34 7 7 -34
88 -45 89 -6 1 -16 2 -22 3 -7 1 -12 9 -10 17 2 12 -9 18 -45 22 -27 3 -61 8
-78 11 -18 3 -46 -2 -72 -14z"/>
<path d="M5318 3428 c-22 -36 -38 -78 -30 -78 11 0 57 88 50 95 -3 3 -12 -5
-20 -17z"/>
<path d="M3991 3398 c-32 -29 -37 -30 -85 -22 -103 18 -180 10 -251 -25 -57
-28 -115 -82 -115 -106 0 -13 50 5 71 26 27 27 57 37 134 45 43 5 74 3 95 -6
25 -11 39 -10 73 0 23 8 50 20 60 29 20 17 61 80 56 86 -2 2 -19 -10 -38 -27z"/>
<path d="M3110 3370 c0 -5 5 -10 10 -10 6 0 10 5 10 10 0 6 -4 10 -10 10 -5 0
-10 -4 -10 -10z"/>
<path d="M1906 3297 c-17 -169 -17 -181 -2 -221 8 -23 17 -61 20 -86 7 -52 32
-75 59 -56 17 13 40 85 38 121 -1 11 -2 56 -4 100 -2 88 -24 140 -77 182 l-27
22 -7 -62z"/>
<path d="M3845 3270 c-3 -5 -1 -10 4 -10 6 0 10 -5 9 -11 -2 -6 3 -14 10 -16
17 -6 15 22 -2 36 -10 8 -16 9 -21 1z"/>
<path d="M3677 3238 c-4 -14 -11 -18 -24 -14 -13 4 -19 1 -19 -12 -1 -9 -3
-24 -5 -32 -2 -9 4 -16 18 -18 16 -2 24 -12 29 -38 3 -19 11 -34 16 -34 6 0 8
6 5 13 -17 47 -18 57 -2 57 9 0 15 -6 14 -12 -1 -7 -1 -22 0 -33 1 -17 3 -17
11 -5 8 12 13 13 27 2 10 -6 28 -16 41 -22 25 -11 27 -20 10 -39 -11 -10 -9
-12 7 -10 11 1 32 -3 47 -9 29 -12 58 -7 58 10 0 5 -9 12 -20 15 -11 3 -20 9
-20 13 0 4 -12 11 -26 14 -31 8 -63 36 -42 36 7 1 -2 7 -19 15 -18 8 -33 15
-33 17 0 14 91 -9 116 -29 19 -14 35 -20 38 -14 4 6 -7 17 -23 26 -17 8 -35
23 -40 32 -6 11 -11 13 -11 5 0 -8 -9 -10 -27 -6 -36 9 -37 9 -25 30 7 13 6
24 -5 41 -15 23 -43 32 -43 13 0 -6 -9 -6 -24 0 -20 7 -25 5 -29 -12z m28 -37
c3 -5 1 -12 -5 -16 -5 -3 -10 1 -10 9 0 18 6 21 15 7z m25 -27 c0 -8 -5 -12
-10 -9 -6 4 -8 11 -5 16 9 14 15 11 15 -7z"/>
<path d="M3800 3231 c0 -5 7 -11 15 -15 8 -3 15 -1 15 3 0 5 -7 11 -15 15 -8
3 -15 1 -15 -3z"/>
<path d="M3851 3194 c0 -11 3 -14 6 -6 3 7 2 16 -1 19 -3 4 -6 -2 -5 -13z"/>
<path d="M3902 3193 c2 -10 13 -22 26 -28 12 -5 25 -18 28 -27 3 -10 10 -18
15 -18 5 0 9 -7 9 -15 0 -9 7 -18 15 -21 8 -4 15 -15 15 -25 0 -22 -11 -24
-29 -6 -21 20 -1 -44 21 -67 10 -11 18 -24 18 -29 0 -5 13 -7 30 -4 38 8 98
-36 77 -57 -7 -7 -27 -13 -46 -14 -18 0 -35 -3 -38 -6 -3 -3 -14 -1 -24 4 -15
8 -23 4 -40 -20 -28 -37 -42 -39 -33 -5 7 30 1 31 -36 5 -16 -11 -35 -17 -44
-14 -12 5 -15 2 -10 -10 4 -11 1 -16 -12 -16 -16 0 -15 -2 5 -16 14 -10 52
-19 92 -22 82 -6 88 -18 27 -62 -42 -31 -35 -38 21 -19 26 9 35 8 50 -6 14
-11 21 -13 26 -5 4 6 17 9 30 6 40 -10 149 118 158 185 3 29 5 31 11 12 7 -20
33 -34 65 -37 8 -1 16 -7 19 -14 6 -18 22 -15 22 4 0 10 6 14 15 10 10 -3 15
1 15 11 0 9 8 22 18 29 14 11 15 16 4 31 -6 10 -18 29 -24 43 -16 33 -44 60
-62 60 -8 0 -18 5 -21 10 -3 6 -14 10 -23 10 -13 0 -13 -2 4 -14 19 -14 19
-15 0 -22 -14 -5 -24 -1 -37 14 -9 12 -21 22 -26 22 -5 0 -14 8 -21 18 -10 13
-28 17 -87 17 -41 0 -77 -4 -81 -8 -8 -8 -64 47 -64 63 0 6 -5 8 -12 4 -8 -5
-9 -2 -5 10 4 10 3 15 -3 11 -6 -3 -10 -2 -10 3 0 5 -12 17 -26 27 -25 16 -26
16 -22 -2z"/>
<path d="M4007 3140 c3 -11 12 -20 21 -20 13 0 12 3 -3 20 -10 11 -19 20 -21
20 -1 0 0 -9 3 -20z"/>
<path d="M2970 3083 c-27 -11 -40 -43 -17 -43 6 0 17 11 24 25 6 14 10 25 10
24 -1 0 -9 -3 -17 -6z"/>
<path d="M2825 3060 c-4 -6 -11 -8 -16 -5 -5 4 -10 -4 -10 -17 -1 -17 -3 -18
-6 -5 -6 23 -30 22 -38 -3 -3 -11 -13 -20 -21 -20 -18 0 -18 5 2 24 8 9 10 16
4 16 -6 0 -13 -7 -16 -15 -4 -8 -10 -13 -14 -10 -4 3 -18 -5 -30 -18 -31 -32
-34 -90 -5 -117 21 -20 55 -19 55 1 0 19 35 49 57 49 13 0 31 8 41 18 10 10
24 16 30 14 7 -2 16 9 22 25 5 15 15 36 21 46 14 25 3 34 -21 19 -12 -7 -21
-8 -25 -2 -8 13 -22 13 -30 0z m-123 -72 c-7 -7 -12 -8 -12 -2 0 6 3 14 7 17
3 4 9 5 12 2 2 -3 -1 -11 -7 -17z"/>
<path d="M3928 3063 c-11 -20 -1 -68 15 -71 14 -3 16 2 11 30 -7 36 -19 55
-26 41z"/>
<path d="M2107 3034 c-3 -5 1 -34 9 -64 8 -30 11 -69 8 -86 -3 -18 1 -46 10
-68 21 -50 39 -38 30 21 -5 33 -3 48 7 54 10 6 11 11 3 17 -6 4 -22 36 -36 71
-14 35 -28 60 -31 55z"/>
<path d="M2820 2865 c-10 -11 -6 -23 20 -59 32 -44 66 -64 73 -43 2 8 13 7 35
-2 39 -16 48 -11 30 19 -10 18 -10 24 0 27 13 5 17 24 5 21 -29 -5 -116 17
-126 33 -14 23 -21 24 -37 4z"/>
<path d="M3763 2843 c-7 -15 -11 -28 -9 -31 8 -7 45 18 56 38 9 17 8 20 -12
20 -15 0 -27 -9 -35 -27z"/>
<path d="M4697 2846 c-4 -10 -5 -21 -2 -24 9 -9 17 6 13 25 -3 17 -4 17 -11
-1z"/>
<path d="M3770 2800 c0 -5 5 -10 10 -10 6 0 10 5 10 10 0 6 -4 10 -10 10 -5 0
-10 -4 -10 -10z"/>
<path d="M4711 2744 c0 -11 3 -14 6 -6 3 7 2 16 -1 19 -3 4 -6 -2 -5 -13z"/>
<path d="M3756 2654 c-7 -20 9 -25 38 -14 33 12 33 17 -4 22 -18 3 -31 0 -34
-8z"/>
<path d="M3948 2533 c-4 -11 -115 -93 -125 -93 -14 -1 -77 -59 -71 -66 4 -3
13 -1 20 5 77 64 127 89 139 70 13 -21 38 -1 45 35 3 20 10 36 15 36 5 0 9 5
9 10 0 12 -27 14 -32 3z"/>
<path d="M3805 2390 c-3 -5 -4 -14 -1 -18 9 -14 -30 -39 -70 -45 -22 -4 -74
-7 -116 -8 -64 -1 -78 -5 -78 -18 -1 -15 -2 -15 -13 0 -24 31 -188 32 -195 1
-1 -8 2 -11 8 -7 6 4 8 -10 4 -39 -5 -31 -3 -46 5 -46 6 0 11 6 11 14 0 18 70
16 89 -3 13 -11 12 -14 -1 -22 -10 -6 -14 -17 -11 -30 4 -16 8 -17 14 -7 7 10
9 8 10 -7 1 -17 2 -16 9 5 l8 25 1 -24 c1 -23 2 -23 20 -7 11 10 24 15 30 12
5 -4 14 1 19 10 5 9 11 15 13 14 2 -1 17 3 32 9 35 13 37 13 37 1 0 -5 -7 -10
-15 -10 -8 0 -15 -8 -14 -17 0 -11 3 -13 6 -5 7 17 23 15 23 -3 0 -8 9 -15 20
-15 13 0 18 5 14 15 -4 8 -3 23 1 33 6 15 8 15 25 -6 l19 -23 -1 32 c-1 17 5
35 13 40 24 15 77 10 88 -8 10 -17 12 -17 26 1 8 11 12 29 10 40 -4 14 7 38
30 71 23 32 31 51 24 54 -7 2 -18 -4 -24 -13 -7 -9 -23 -16 -36 -15 -13 0 -18
3 -11 6 6 2 12 9 12 14 0 12 -27 12 -35 -1z m-345 -147 c-11 -17 -11 -17 -6 0
3 10 7 26 7 35 1 15 2 15 6 0 2 -10 -1 -25 -7 -35z"/>
<path d="M3309 2284 c6 -3 7 -12 4 -20 -3 -8 0 -14 7 -14 15 0 9 33 -8 36 -7
1 -8 0 -3 -2z"/>
<path d="M3391 2201 c-8 -15 -7 -20 5 -25 22 -8 22 -9 22 19 0 30 -13 33 -27
6z"/>
<path d="M3520 2135 c-14 -16 -10 -18 14 -9 9 3 16 10 16 15 0 14 -16 11 -30
-6z"/>
<path d="M4210 2110 c0 -5 5 -10 11 -10 5 0 7 5 4 10 -3 6 -8 10 -11 10 -2 0
-4 -4 -4 -10z"/>
<path d="M2737 2103 c-4 -3 -7 -11 -7 -17 0 -6 5 -5 12 2 6 6 9 14 7 17 -3 3
-9 2 -12 -2z"/>
<path d="M6620 2040 c0 -11 -6 -20 -14 -20 -16 0 -48 -45 -92 -127 -16 -30
-16 -32 3 -60 32 -44 36 -83 13 -118 -28 -42 -25 -62 15 -100 51 -48 87 -60
134 -47 54 17 70 40 88 123 8 41 21 93 29 116 9 24 12 54 8 70 -8 29 -49 73
-70 73 -7 0 -30 17 -52 38 -31 30 -38 42 -30 55 7 14 5 17 -12 17 -13 0 -20
-7 -20 -20z"/>
<path d="M6747 2016 c-3 -8 -2 -18 3 -21 13 -8 24 15 12 27 -6 6 -11 4 -15 -6z"/>
<path d="M3760 1760 c0 -5 5 -10 11 -10 5 0 7 5 4 10 -3 6 -8 10 -11 10 -2 0
-4 -4 -4 -10z"/>
<path d="M3200 1719 c0 -5 5 -7 10 -4 6 3 10 8 10 11 0 2 -4 4 -10 4 -5 0 -10
-5 -10 -11z"/>
<path d="M3291 1717 c8 -7 19 -21 23 -32 6 -13 10 -16 13 -7 8 21 -4 39 -29
45 -19 5 -21 4 -7 -6z"/>
<path d="M2455 1678 c-126 -101 -321 -317 -339 -374 -8 -26 19 -41 40 -23 15
13 15 13 19 -97 2 -37 9 -71 20 -87 17 -26 14 -47 -8 -47 -8 0 -12 -23 -12
-72 0 -45 -6 -89 -17 -114 -13 -32 -17 -74 -17 -197 0 -91 -4 -164 -10 -176
-20 -37 -7 -85 14 -51 9 15 25 12 25 -5 0 -8 -6 -24 -12 -35 -9 -14 -10 -25
-2 -37 5 -10 9 -37 9 -60 -1 -24 2 -43 6 -43 4 0 26 37 49 82 34 68 40 77 37
47 -3 -19 -14 -55 -25 -80 -43 -93 -132 -300 -132 -304 0 -3 4 -5 8 -5 5 0 17
19 27 43 10 23 23 56 30 72 7 17 35 80 63 140 86 192 87 194 73 288 -15 107
-14 188 3 317 28 206 87 365 171 459 62 69 65 78 64 203 0 124 -9 190 -24 194
-6 1 -32 -16 -60 -38z"/>
<path d="M5351 1214 c0 -11 3 -14 6 -6 3 7 2 16 -1 19 -3 4 -6 -2 -5 -13z"/>
<path d="M6180 1203 c-19 -2 -39 -11 -43 -19 -4 -8 -15 -14 -23 -14 -29 0 -3
-19 49 -35 28 -9 59 -20 67 -24 36 -19 126 -33 177 -28 58 6 107 30 100 50 -2
7 -39 24 -83 40 -78 27 -177 39 -244 30z"/>
<path d="M5905 1051 c-6 -11 9 -23 19 -14 9 9 7 23 -3 23 -6 0 -12 -4 -16 -9z"/>
<path d="M67 1033 c-14 -13 -6 -42 18 -71 15 -18 23 -37 19 -46 -4 -12 0 -16
15 -16 13 0 25 9 30 22 10 28 -3 98 -20 109 -17 10 -53 12 -62 2z"/>
<path d="M6360 975 c0 -2 11 -12 25 -21 30 -19 58 -8 30 13 -18 12 -55 18 -55
8z"/>
<path d="M5860 932 c0 -5 7 -13 16 -16 10 -4 14 -1 12 6 -5 15 -28 23 -28 10z"/>
<path d="M1911 914 c0 -11 3 -14 6 -6 3 7 2 16 -1 19 -3 4 -6 -2 -5 -13z"/>
<path d="M1886 801 c-4 -7 -5 -15 -2 -18 9 -9 19 4 14 18 -4 11 -6 11 -12 0z"/>
<path d="M5106 748 c-3 -13 -7 -41 -11 -63 -5 -37 -4 -39 9 -20 9 11 20 25 25
32 7 7 6 13 -3 16 -9 3 -12 15 -9 31 3 14 3 26 -1 26 -3 0 -8 -10 -10 -22z"/>
<path d="M17 738 c-6 -23 12 -43 25 -30 9 9 -1 52 -12 52 -4 0 -10 -10 -13
-22z"/>
<path d="M5075 570 c-3 -5 1 -10 10 -10 9 0 13 5 10 10 -3 6 -8 10 -10 10 -2
0 -7 -4 -10 -10z"/>
<path d="M5020 415 c0 -9 6 -12 15 -9 8 4 15 10 15 15 0 5 -7 9 -15 9 -8 0
-15 -7 -15 -15z"/>
<path d="M4990 395 c0 -8 -7 -15 -15 -15 -8 0 -15 -4 -15 -10 0 -6 9 -6 23 1
22 10 33 39 15 39 -4 0 -8 -7 -8 -15z"/>
<path d="M6400 361 c0 -5 7 -14 15 -21 13 -10 15 -9 15 9 0 12 -6 21 -15 21
-8 0 -15 -4 -15 -9z"/>
<path d="M4985 349 c-10 -15 3 -25 16 -12 7 7 7 13 1 17 -6 3 -14 1 -17 -5z"/>
<path d="M1 218 l-1 -127 36 -10 c24 -7 43 -7 55 0 10 5 22 9 26 8 20 -3 23 3
11 23 -7 13 -11 26 -10 30 1 4 -11 14 -26 22 -28 14 -51 52 -53 84 0 9 -9 35
-19 57 l-19 40 0 -127z"/>
<path d="M5048 313 c7 -3 16 -2 19 1 4 3 -2 6 -13 5 -11 0 -14 -3 -6 -6z"/>
<path d="M6449 310 c-2 -20 -1 -22 6 -42 6 -14 2 -18 -14 -18 -12 0 -36 -7
-52 -16 -48 -24 -147 -55 -224 -69 -38 -7 -95 -19 -125 -28 -36 -9 -83 -13
-137 -10 -54 2 -103 -2 -142 -12 -32 -8 -75 -15 -94 -15 -20 0 -38 -3 -41 -8
-2 -4 1 -27 7 -50 l11 -42 412 0 412 0 11 31 c6 17 8 42 5 54 -3 13 -1 26 5
29 6 4 11 18 11 31 0 13 6 26 13 28 8 4 7 6 -3 6 -12 1 -14 11 -12 45 3 37 -1
50 -22 73 -18 19 -26 23 -27 13z m41 -60 c0 -5 -2 -10 -4 -10 -3 0 -8 5 -11
10 -3 6 -1 10 4 10 6 0 11 -4 11 -10z"/>
<path d="M6729 275 c-1 -6 -2 -15 -3 -21 -2 -18 -33 -44 -53 -44 -15 0 -16 -2
-3 -11 11 -8 12 -12 3 -16 -18 -7 -16 -30 3 -37 9 -3 31 -6 50 -6 25 0 32 4
28 14 -3 8 2 29 12 46 18 30 18 30 -9 57 -15 15 -28 23 -28 18z"/>
<path d="M375 211 c-6 -6 -35 -23 -65 -38 -58 -30 -65 -44 -39 -81 22 -31 50
-19 112 47 40 43 46 55 37 66 -14 17 -32 19 -45 6z"/>
<path d="M4940 201 c0 -6 5 -13 10 -16 6 -3 10 1 10 9 0 9 -4 16 -10 16 -5 0
-10 -4 -10 -9z"/>
<path d="M1216 141 c-16 -25 40 -121 70 -121 7 0 14 -4 14 -10 0 -6 39 -10 98
-10 l97 0 23 42 c12 23 19 45 14 50 -5 5 -49 13 -98 19 -49 5 -107 14 -129 20
-77 20 -83 21 -89 10z"/>
<path d="M4910 40 c0 -11 5 -20 10 -20 6 0 10 9 10 20 0 11 -4 20 -10 20 -5 0
-10 -9 -10 -20z"/>
<path d="M6597 53 c-5 -7 -10 -22 -12 -33 -3 -17 1 -20 28 -20 28 1 30 2 16
13 -9 7 -18 21 -21 32 -2 14 -6 16 -11 8z"/>
<path d="M4870 26 c0 -8 5 -18 10 -21 6 -3 10 1 10 9 0 8 -4 18 -10 21 -5 3
-10 -1 -10 -9z"/>
<path d="M6655 30 c-3 -5 -1 -10 4 -10 6 0 11 5 11 10 0 6 -2 10 -4 10 -3 0
-8 -4 -11 -10z"/>
<path d="M5337 23 c-4 -3 -7 -11 -7 -17 0 -6 5 -5 12 2 6 6 9 14 7 17 -3 3 -9
2 -12 -2z"/>
</g>
</svg>
